<svg width="21" height="22" viewBox="0 0 21 22" fill="none" xmlns="http://www.w3.org/2000/svg">
<path d="M13.9932 0.55003V7.04038C13.9932 7.52441 13.4212 7.76642 13.0692 7.44741L11.1441 5.67631C10.9351 5.4783 10.605 5.4783 10.396 5.67631L8.47093 7.43641C8.11891 7.76642 7.54688 7.51341 7.54688 7.04038V0.55003C7.54688 0.242013 7.78889 0 8.0969 0H13.4432C13.7512 0 13.9932 0.242013 13.9932 0.55003Z" fill="white"/>
<path d="M16.2558 0.0593346C15.9368 0.0153264 15.6507 0.290377 15.6507 0.609436V7.23266C15.6507 8.06882 15.1556 8.82796 14.3855 9.16902C13.6154 9.49908 12.7242 9.35605 12.1081 8.78395L11.1509 7.90378C10.9419 7.70575 10.6228 7.70575 10.4028 7.90378L9.44558 8.78395C9.04951 9.15802 8.53242 9.34505 8.01532 9.34505C7.72927 9.34505 7.44321 9.29004 7.16816 9.16902C6.39802 8.82796 5.90293 8.06882 5.90293 7.23266V0.609436C5.90293 0.290377 5.61688 0.0153264 5.29782 0.0593346C2.21725 0.444406 0.875 2.52379 0.875 5.49434V16.4964C0.875 19.797 2.52531 21.9974 6.37602 21.9974H15.1776C19.0284 21.9974 20.6787 19.797 20.6787 16.4964V5.49434C20.6787 2.52379 19.3364 0.444406 16.2558 0.0593346ZM16.8279 18.4217H7.47622C7.02514 18.4217 6.65107 18.0477 6.65107 17.5966C6.65107 17.1455 7.02514 16.7714 7.47622 16.7714H16.8279C17.279 16.7714 17.6531 17.1455 17.6531 17.5966C17.6531 18.0477 17.279 18.4217 16.8279 18.4217ZM16.8279 14.0209H12.1521C11.701 14.0209 11.3269 13.6468 11.3269 13.1958C11.3269 12.7447 11.701 12.3706 12.1521 12.3706H16.8279C17.279 12.3706 17.6531 12.7447 17.6531 13.1958C17.6531 13.6468 17.279 14.0209 16.8279 14.0209Z" fill="white"/>
</svg>
