<svg width="24" height="25" viewBox="0 0 24 25" fill="none" xmlns="http://www.w3.org/2000/svg">
<path d="M14.9303 2.73438V8.63437C14.9303 9.07437 14.4103 9.29438 14.0903 9.00438L12.3403 7.39437C12.1503 7.21438 11.8503 7.21438 11.6603 7.39437L9.91031 8.99438C9.59031 9.29438 9.07031 9.06437 9.07031 8.63437V2.73438C9.07031 2.45437 9.29031 2.23438 9.57031 2.23438H14.4303C14.7103 2.23438 14.9303 2.45437 14.9303 2.73438Z" fill="#FC9214"/>
<path d="M16.98 2.29329C16.69 2.25329 16.43 2.50329 16.43 2.79329V8.81329C16.43 9.57329 15.98 10.2633 15.28 10.5733C14.58 10.8733 13.77 10.7433 13.21 10.2233L12.34 9.42329C12.15 9.24329 11.86 9.24329 11.66 9.42329L10.79 10.2233C10.43 10.5633 9.96 10.7333 9.49 10.7333C9.23 10.7333 8.97 10.6833 8.72 10.5733C8.02 10.2633 7.57 9.57329 7.57 8.81329V2.79329C7.57 2.50329 7.31 2.25329 7.02 2.29329C4.22 2.64329 3 4.53329 3 7.23329V17.2333C3 20.2333 4.5 22.2333 8 22.2333H16C19.5 22.2333 21 20.2333 21 17.2333V7.23329C21 4.53329 19.78 2.64329 16.98 2.29329ZM17.5 18.9833H9C8.59 18.9833 8.25 18.6433 8.25 18.2333C8.25 17.8233 8.59 17.4833 9 17.4833H17.5C17.91 17.4833 18.25 17.8233 18.25 18.2333C18.25 18.6433 17.91 18.9833 17.5 18.9833ZM17.5 14.9833H13.25C12.84 14.9833 12.5 14.6433 12.5 14.2333C12.5 13.8233 12.84 13.4833 13.25 13.4833H17.5C17.91 13.4833 18.25 13.8233 18.25 14.2333C18.25 14.6433 17.91 14.9833 17.5 14.9833Z" fill="#FC9214"/>
</svg>
