<svg width="24" height="25" viewBox="0 0 24 25" fill="none" xmlns="http://www.w3.org/2000/svg">
<path d="M22 5.08406V16.9741C22 17.9441 21.21 18.8341 20.24 18.9541L19.93 18.9941C18.29 19.2141 15.98 19.8941 14.12 20.6741C13.47 20.9441 12.75 20.4541 12.75 19.7441V5.83406C12.75 5.46406 12.96 5.12406 13.29 4.94406C15.12 3.95406 17.89 3.07406 19.77 2.91406H19.83C21.03 2.91406 22 3.88406 22 5.08406Z" fill="#FC9214"/>
<path d="M10.7122 4.94406C8.88219 3.95406 6.11219 3.07406 4.23219 2.91406H4.16219C2.96219 2.91406 1.99219 3.88406 1.99219 5.08406V16.9741C1.99219 17.9441 2.78219 18.8341 3.75219 18.9541L4.06219 18.9941C5.70219 19.2141 8.01219 19.8941 9.87219 20.6741C10.5222 20.9441 11.2422 20.4541 11.2422 19.7441V5.83406C11.2422 5.45406 11.0422 5.12406 10.7122 4.94406ZM5.00219 7.97406H7.25219C7.66219 7.97406 8.00219 8.31406 8.00219 8.72406C8.00219 9.14406 7.66219 9.47406 7.25219 9.47406H5.00219C4.59219 9.47406 4.25219 9.14406 4.25219 8.72406C4.25219 8.31406 4.59219 7.97406 5.00219 7.97406ZM8.00219 12.4741H5.00219C4.59219 12.4741 4.25219 12.1441 4.25219 11.7241C4.25219 11.3141 4.59219 10.9741 5.00219 10.9741H8.00219C8.41219 10.9741 8.75219 11.3141 8.75219 11.7241C8.75219 12.1441 8.41219 12.4741 8.00219 12.4741Z" fill="#FC9214"/>
</svg>
