<svg width="18" height="21" viewBox="0 0 18 21" fill="none" xmlns="http://www.w3.org/2000/svg">
<path d="M13.2546 2.26556V0.761951C13.2546 0.366772 12.9269 0.0390625 12.5317 0.0390625C12.1365 0.0390625 11.8088 0.366772 11.8088 0.761951V2.20773H5.54378V0.761951C5.54378 0.366772 5.21607 0.0390625 4.82089 0.0390625C4.42571 0.0390625 4.098 0.366772 4.098 0.761951V2.26556C1.4956 2.50652 0.232957 4.05832 0.040187 6.36193C0.02091 6.64144 0.252234 6.87277 0.522113 6.87277H16.8305C17.11 6.87277 17.3413 6.63181 17.3124 6.36193C17.1196 4.05832 15.857 2.50652 13.2546 2.26556Z" fill="#FCBA67"/>
<path d="M16.3855 8.32031H0.963851C0.433733 8.32031 0 8.75405 0 9.28416V15.2215C0 18.113 1.44578 20.0407 4.81926 20.0407H12.5301C15.9035 20.0407 17.3493 18.113 17.3493 15.2215V9.28416C17.3493 8.75405 16.9156 8.32031 16.3855 8.32031ZM5.98552 16.3877C5.88913 16.4745 5.78311 16.542 5.66745 16.5902C5.55178 16.6383 5.42648 16.6673 5.30118 16.6673C5.17588 16.6673 5.05058 16.6383 4.93492 16.5902C4.81926 16.542 4.71323 16.4745 4.61685 16.3877C4.44336 16.2046 4.33733 15.954 4.33733 15.7034C4.33733 15.4528 4.44336 15.2022 4.61685 15.0191C4.71323 14.9323 4.81926 14.8649 4.93492 14.8167C5.16624 14.7203 5.43612 14.7203 5.66745 14.8167C5.78311 14.8649 5.88913 14.9323 5.98552 15.0191C6.15901 15.2022 6.26503 15.4528 6.26503 15.7034C6.26503 15.954 6.15901 16.2046 5.98552 16.3877ZM6.18793 12.6962C6.13973 12.8119 6.07226 12.9179 5.98552 13.0143C5.88913 13.101 5.78311 13.1685 5.66745 13.2167C5.55178 13.2649 5.42648 13.2938 5.30118 13.2938C5.17588 13.2938 5.05058 13.2649 4.93492 13.2167C4.81926 13.1685 4.71323 13.101 4.61685 13.0143C4.5301 12.9179 4.46263 12.8119 4.41444 12.6962C4.36625 12.5805 4.33733 12.4552 4.33733 12.3299C4.33733 12.2046 4.36625 12.0793 4.41444 11.9637C4.46263 11.848 4.5301 11.742 4.61685 11.6456C4.71323 11.5589 4.81926 11.4914 4.93492 11.4432C5.16624 11.3468 5.43612 11.3468 5.66745 11.4432C5.78311 11.4914 5.88913 11.5589 5.98552 11.6456C6.07226 11.742 6.13973 11.848 6.18793 11.9637C6.23612 12.0793 6.26503 12.2046 6.26503 12.3299C6.26503 12.4552 6.23612 12.5805 6.18793 12.6962ZM9.359 13.0143C9.26261 13.101 9.15659 13.1685 9.04093 13.2167C8.92526 13.2649 8.79996 13.2938 8.67466 13.2938C8.54936 13.2938 8.42406 13.2649 8.3084 13.2167C8.19274 13.1685 8.08671 13.101 7.99033 13.0143C7.81683 12.8311 7.71081 12.5805 7.71081 12.3299C7.71081 12.0793 7.81683 11.8287 7.99033 11.6456C8.08671 11.5589 8.19274 11.4914 8.3084 11.4432C8.53972 11.3372 8.8096 11.3372 9.04093 11.4432C9.15659 11.4914 9.26261 11.5589 9.359 11.6456C9.53249 11.8287 9.63851 12.0793 9.63851 12.3299C9.63851 12.5805 9.53249 12.8311 9.359 13.0143Z" fill="#FCBA67"/>
</svg>
