<svg width="24" height="25" viewBox="0 0 24 25" fill="none" xmlns="http://www.w3.org/2000/svg">
<path d="M12 0.398438C5.376 0.398438 0 5.77444 0 12.3984C0 19.0224 5.376 24.3984 12 24.3984C18.624 24.3984 24 19.0224 24 12.3984C24 5.77444 18.624 0.398438 12 0.398438ZM12 21.6984C6.876 21.6984 2.7 17.5224 2.7 12.3984C2.7 10.7664 3.132 9.17044 3.936 7.76644C4.176 7.33444 4.728 7.19044 5.16 7.43044L12.444 11.6184C12.876 11.8704 13.02 12.4104 12.78 12.8424C12.528 13.2744 11.988 13.4184 11.556 13.1784L8.064 11.1744C7.944 11.5704 7.86 11.9784 7.86 12.3984C7.86 14.6784 9.72 16.5384 12 16.5384C14.28 16.5384 16.14 14.6784 16.14 12.3984C16.14 10.1184 14.28 8.25844 12 8.25844C11.388 8.25844 10.788 8.39044 10.236 8.65444C9.78 8.87044 9.252 8.67844 9.036 8.22244C8.82 7.77844 9.012 7.23844 9.468 7.02244C10.26 6.65044 11.112 6.45844 12 6.45844C15.276 6.45844 17.94 9.12244 17.94 12.3984C17.94 15.6744 15.276 18.3384 12 18.3384C8.724 18.3384 6.06 15.6744 6.06 12.3984C6.06 11.6664 6.204 10.9344 6.468 10.2504L5.088 9.47044C4.704 10.3944 4.5 11.3904 4.5 12.3984C4.5 16.5384 7.86 19.8984 12 19.8984C16.14 19.8984 19.5 16.5384 19.5 12.3984C19.5 8.25844 16.14 4.89844 12 4.89844C10.368 4.89844 8.808 5.41444 7.5 6.39844C7.104 6.69844 6.54 6.61444 6.24 6.21844C5.94 5.82244 6.024 5.25844 6.42 4.95844C8.04 3.74644 9.972 3.09844 12 3.09844C17.124 3.09844 21.3 7.27444 21.3 12.3984C21.3 17.5224 17.124 21.6984 12 21.6984Z" fill="#FC9214"/>
</svg>
