<svg width="46" height="34" viewBox="0 0 46 34" fill="none" xmlns="http://www.w3.org/2000/svg">
<path d="M2.59844 11.8984C1.57844 11.8984 0.898438 12.5784 0.898438 13.5984V20.3984C0.898438 21.4184 1.57844 22.0984 2.59844 22.0984C3.61844 22.0984 4.29844 21.4184 4.29844 20.3984V13.5984C4.29844 12.5784 3.61844 11.8984 2.59844 11.8984Z" fill="#FC9214"/>
<path d="M9.39531 8.5C8.37531 8.5 7.69531 9.18 7.69531 10.2V23.8C7.69531 24.82 8.37531 25.5 9.39531 25.5C10.4153 25.5 11.0953 24.82 11.0953 23.8V10.2C11.0953 9.18 10.4153 8.5 9.39531 8.5Z" fill="#FC9214"/>
<path d="M16.2 0C15.18 0 14.5 0.68 14.5 1.7V32.3C14.5 33.32 15.18 34 16.2 34C17.22 34 17.9 33.32 17.9 32.3V1.7C17.9 0.68 17.22 0 16.2 0Z" fill="#FC9214"/>
<path d="M22.9969 11.8984C21.9769 11.8984 21.2969 12.5784 21.2969 13.5984V20.3984C21.2969 21.4184 21.9769 22.0984 22.9969 22.0984C24.0169 22.0984 24.6969 21.4184 24.6969 20.3984V13.5984C24.6969 12.5784 24.0169 11.8984 22.9969 11.8984Z" fill="#FC9214"/>
<path d="M29.8016 5.10156C28.7816 5.10156 28.1016 5.78156 28.1016 6.80156V27.2016C28.1016 28.2216 28.7816 28.9016 29.8016 28.9016C30.8216 28.9016 31.5016 28.2216 31.5016 27.2016V6.80156C31.5016 5.78156 30.8216 5.10156 29.8016 5.10156Z" fill="#FC9214"/>
<path d="M36.5984 0C35.5784 0 34.8984 0.68 34.8984 1.7V32.3C34.8984 33.32 35.5784 34 36.5984 34C37.6184 34 38.2984 33.32 38.2984 32.3V1.7C38.2984 0.68 37.6184 0 36.5984 0Z" fill="#FC9214"/>
<path d="M43.3953 11.8984C42.3753 11.8984 41.6953 12.5784 41.6953 13.5984V20.3984C41.6953 21.4184 42.3753 22.0984 43.3953 22.0984C44.4153 22.0984 45.0953 21.4184 45.0953 20.3984V13.5984C45.0953 12.5784 44.4153 11.8984 43.3953 11.8984Z" fill="#FC9214"/>
</svg>
