<svg width="24" height="25" viewBox="0 0 24 25" fill="none" xmlns="http://www.w3.org/2000/svg">
<path d="M14.2857 9.94866C16.1429 9.94866 17.2857 7.23438 17.2857 5.52009C17.2857 4.09152 16.5714 2.37723 15.1429 2.37723C13.2857 2.37723 12.1429 5.09152 12.1429 6.8058C12.1429 8.23438 12.8571 9.94866 14.2857 9.94866ZM8.85714 9.94866C10.2857 9.94866 11 8.23438 11 6.8058C11 4.94866 9.85714 2.23438 8 2.23438C6.57143 2.23438 5.85714 3.94866 5.85714 5.37723C5.71429 7.23438 6.85714 9.94866 8.85714 9.94866ZM19.4286 8.52009C17.5714 8.52009 16.2857 11.0915 16.2857 12.9487C16.2857 14.2344 16.8571 15.5201 18.1429 15.5201C20 15.5201 21.2857 12.9487 21.2857 11.0915C21.2857 9.8058 20.5714 8.52009 19.4286 8.52009ZM7 12.9487C7 11.0915 5.57143 8.52009 3.85714 8.52009C2.57143 8.52009 2 9.8058 2 11.0915C2 12.9487 3.42857 15.5201 5.14286 15.5201C6.42857 15.5201 7 14.2344 7 12.9487ZM11.5714 12.6629C8.71429 12.6629 4.85714 17.2344 4.85714 20.3772C4.85714 21.8058 5.85714 22.2344 7 22.2344C8.71429 22.2344 10 21.0915 11.5714 21.0915C13 21.0915 14.2857 22.2344 15.8571 22.2344C17 22.2344 18.2857 21.9487 18.2857 20.3772C18.2857 17.2344 14.4286 12.6629 11.5714 12.6629Z" fill="#FC9214"/>
</svg>
