<svg width="25" height="25" viewBox="0 0 25 25" fill="none" xmlns="http://www.w3.org/2000/svg">
<path d="M21.8047 22.2031H3.80469C3.39469 22.2031 3.05469 21.8631 3.05469 21.4531C3.05469 21.0431 3.39469 20.7031 3.80469 20.7031H21.8047C22.2147 20.7031 22.5547 21.0431 22.5547 21.4531C22.5547 21.8631 22.2147 22.2031 21.8047 22.2031Z" fill="#FC9214"/>
<path d="M19.8272 3.68475C17.8872 1.74475 15.9872 1.69475 13.9972 3.68475L12.7872 4.89475C12.6872 4.99475 12.6472 5.15475 12.6872 5.29475C13.4472 7.94475 15.5672 10.0647 18.2172 10.8247C18.2572 10.8347 18.2972 10.8447 18.3372 10.8447C18.4472 10.8447 18.5472 10.8047 18.6272 10.7247L19.8272 9.51475C20.8172 8.53475 21.2972 7.58475 21.2972 6.62475C21.3072 5.63475 20.8272 4.67475 19.8272 3.68475Z" fill="#FC9214"/>
<path d="M16.4131 11.73C16.1231 11.59 15.8431 11.45 15.5731 11.29C15.3531 11.16 15.1431 11.02 14.9331 10.87C14.7631 10.76 14.5631 10.6 14.3731 10.44C14.3531 10.43 14.2831 10.37 14.2031 10.29C13.8731 10.01 13.5031 9.65 13.1731 9.25C13.1431 9.23 13.0931 9.16 13.0231 9.07C12.9231 8.95 12.7531 8.75 12.6031 8.52C12.4831 8.37 12.3431 8.15 12.2131 7.93C12.0531 7.66 11.9131 7.39 11.7731 7.11C11.7519 7.0646 11.7314 7.01944 11.7115 6.97454C11.5639 6.64122 11.1293 6.54377 10.8715 6.80153L5.14305 12.53C5.01305 12.66 4.89305 12.91 4.86305 13.08L4.32305 16.91C4.22305 17.59 4.41305 18.23 4.83305 18.66C5.19305 19.01 5.69305 19.2 6.23305 19.2C6.35305 19.2 6.47305 19.19 6.59305 19.17L10.4331 18.63C10.6131 18.6 10.8631 18.48 10.9831 18.35L16.7044 12.6287C16.9639 12.3691 16.866 11.9237 16.5284 11.7796C16.4904 11.7634 16.452 11.7469 16.4131 11.73Z" fill="#FC9214"/>
</svg>
