<svg width="23" height="22" viewBox="0 0 23 22" fill="none" xmlns="http://www.w3.org/2000/svg">
<path d="M10.8257 0C5.06132 0 0.375 4.68632 0.375 10.4507C0.375 16.2151 5.06132 20.9014 10.8257 20.9014C16.5901 20.9014 21.2764 16.2151 21.2764 10.4507C21.2764 4.68632 16.5901 0 10.8257 0ZM10.8257 12.9259H7.52548C7.07445 12.9259 6.70043 12.5518 6.70043 12.1008C6.70043 11.6498 7.07445 11.2758 7.52548 11.2758H10.8257C11.2767 11.2758 11.6508 11.6498 11.6508 12.1008C11.6508 12.5518 11.2767 12.9259 10.8257 12.9259ZM14.1259 9.62565H7.52548C7.07445 9.62565 6.70043 9.25162 6.70043 8.80059C6.70043 8.34956 7.07445 7.97554 7.52548 7.97554H14.1259C14.577 7.97554 14.951 8.34956 14.951 8.80059C14.951 9.25162 14.577 9.62565 14.1259 9.62565Z" fill="white"/>
<path d="M21.6126 21.9999C21.4146 21.9999 21.2166 21.9229 21.0736 21.7798L19.0275 19.7337C18.7304 19.4367 18.7304 18.9527 19.0275 18.6446C19.3245 18.3476 19.8085 18.3476 20.1165 18.6446L22.1627 20.6908C22.4597 20.9878 22.4597 21.4718 22.1627 21.7798C22.0087 21.9229 21.8106 21.9999 21.6126 21.9999Z" fill="white"/>
</svg>
