<?xml version="1.0" encoding="UTF-8" standalone="no"?>
<svg
   xmlns:dc="http://purl.org/dc/elements/1.1/"
   xmlns:cc="http://creativecommons.org/ns#"
   xmlns:rdf="http://www.w3.org/1999/02/22-rdf-syntax-ns#"
   xmlns:svg="http://www.w3.org/2000/svg"
   xmlns="http://www.w3.org/2000/svg"
   viewBox="0 0 423.20667 433.54932"
   height="433.54932"
   width="423.20667"
   xml:space="preserve"
   id="svg2"
   version="1.1"><metadata
     id="metadata8"><rdf:RDF><cc:Work
         rdf:about=""><dc:format>image/svg+xml</dc:format><dc:type
           rdf:resource="http://purl.org/dc/dcmitype/StillImage" /></cc:Work></rdf:RDF></metadata><defs
     id="defs6"><clipPath
       id="clipPath18"
       clipPathUnits="userSpaceOnUse"><path
         id="path16"
         d="M 0,325.162 H 317.405 V 0 H 0 Z" /></clipPath><clipPath
       id="clipPath50"
       clipPathUnits="userSpaceOnUse"><path
         id="path48"
         d="m 125.441,133.717 h 33.266 v -37.91 h -33.266 z" /></clipPath><clipPath
       id="clipPath66"
       clipPathUnits="userSpaceOnUse"><path
         id="path64"
         d="m 159.821,133.717 h 33.266 v -37.91 h -33.266 z" /></clipPath></defs><g
     transform="matrix(1.3333333,0,0,-1.3333333,0,433.54933)"
     id="g10"><g
       id="g12"><g
         clip-path="url(#clipPath18)"
         id="g14"><g
           transform="translate(158.7025,319.1617)"
           id="g20"><path
             id="path22"
             style="fill:#fc9214;fill-opacity:1;fill-rule:nonzero;stroke:none"
             d="m 0,0 v 0 c 84.336,0 152.703,-68.367 152.703,-152.703 v -7.756 C 152.703,-244.794 84.336,-313.162 0,-313.162 v 0 c -84.335,0 -152.703,68.368 -152.703,152.703 v 7.756 C -152.703,-68.367 -84.335,0 0,0" /></g><g
           transform="translate(158.7025,319.1617)"
           id="g24"><path
             id="path26"
             style="fill:none;stroke:#823800;stroke-width:12;stroke-linecap:butt;stroke-linejoin:miter;stroke-miterlimit:10;stroke-dasharray:none;stroke-opacity:1"
             d="m 0,0 v 0 c 84.336,0 152.703,-68.367 152.703,-152.703 v -7.756 C 152.703,-244.794 84.336,-313.162 0,-313.162 v 0 c -84.335,0 -152.703,68.368 -152.703,152.703 v 7.756 C -152.703,-68.367 -84.335,0 0,0 Z" /></g><g
           transform="translate(253.7428,142.8454)"
           id="g28"><path
             id="path30"
             style="fill:#823800;fill-opacity:1;fill-rule:nonzero;stroke:none"
             d="m 0,0 c -10.893,-18.853 -29.793,-29.922 -48.775,-30.658 0.024,-0.187 0.035,-0.362 0.047,-0.55 0.105,-1.203 0.175,-2.395 0.175,-3.599 0,-25.329 -20.606,-45.923 -45.922,-45.923 -25.329,0 -45.923,20.594 -45.923,45.923 0,1.204 0.07,2.396 0.175,3.599 0,0.188 0.012,0.363 0.035,0.55 -18.97,0.736 -37.881,11.805 -48.763,30.658 -8.322,14.4 -12.319,27.502 -11.887,38.933 0.129,3.331 2.946,5.949 6.277,5.809 3.343,-0.117 5.938,-2.933 5.809,-6.265 -0.339,-9.117 3.121,-20.033 10.286,-32.434 9.034,-15.651 24.825,-24.674 40.277,-24.674 6.499,0 12.939,1.601 18.794,4.979 8.428,4.862 14.669,12.986 17.568,22.85 0.76,2.467 1.133,4.98 1.133,7.516 V 34.41 c 0,0.339 0.024,0.654 0.071,0.981 -16.153,4.559 -40.289,24.324 -40.289,39.168 0,13.838 11.08,25.772 27.046,31.195 5.902,1.999 12.471,3.121 19.391,3.121 6.907,0 13.488,-1.122 19.379,-3.121 15.977,-5.423 27.058,-17.357 27.058,-31.195 0,-14.844 -24.136,-34.609 -40.301,-39.168 0.047,-0.327 0.082,-0.642 0.082,-0.981 V 16.714 c 0,-2.536 0.374,-5.049 1.133,-7.516 2.887,-9.864 9.129,-17.988 17.568,-22.85 5.844,-3.378 12.284,-4.979 18.794,-4.979 15.44,0 31.243,9.023 40.266,24.674 7.176,12.401 10.636,23.317 10.286,32.434 -0.129,3.332 2.477,6.148 5.809,6.265 3.342,0.14 6.148,-2.478 6.276,-5.809 C 12.319,27.502 8.31,14.4 0,0" /></g><g
           transform="translate(225.3523,175.5254)"
           id="g32"><path
             id="path34"
             style="fill:#ffffff;fill-opacity:1;fill-rule:nonzero;stroke:none"
             d="m 0,0 c -3.32,0 -6.019,2.7 -6.019,6.031 0,3.32 2.699,6.02 6.019,6.02 3.331,0 6.031,-2.7 6.031,-6.02 C 6.031,2.7 3.331,0 0,0 m -25.27,-18.97 c -3.319,0 -6.031,2.7 -6.031,6.019 0,3.332 2.712,6.032 6.031,6.032 3.331,0 6.02,-2.7 6.02,-6.032 0,-3.319 -2.689,-6.019 -6.02,-6.019 m -81.641,12.051 c 3.331,0 6.031,-2.7 6.031,-6.032 0,-3.319 -2.7,-6.019 -6.031,-6.019 -3.32,0 -6.02,2.7 -6.02,6.019 0,3.332 2.7,6.032 6.02,6.032 M -132.181,0 c -3.331,0 -6.031,2.7 -6.031,6.031 0,3.32 2.7,6.02 6.031,6.02 3.331,0 6.031,-2.7 6.031,-6.02 0,-3.331 -2.7,-6.031 -6.031,-6.031" /></g><g
           transform="translate(131.1976,233.684)"
           id="g36"><path
             id="path38"
             style="fill:#ffffff;fill-opacity:1;fill-rule:nonzero;stroke:none"
             d="M 0,0 C 17.052,9.354 39.081,9.354 56.133,0 40.884,-9.195 15.249,-9.195 0,0" /></g><g
           transform="translate(159.2644,74.2164)"
           id="g40"><path
             id="path42"
             style="fill:#ff4931;fill-opacity:1;fill-rule:nonzero;stroke:none"
             d="m 0,0 c -18.651,0 -33.823,15.173 -33.823,33.823 0,0.373 0.01,0.756 0.02,1.129 0.01,0.101 0.01,0.202 0.01,0.293 0,0.1 0.01,0.201 0.02,0.292 0.01,0.302 0.03,0.595 0.061,0.897 0,0.051 0.01,0.111 0.01,0.161 0.02,0.353 0.06,0.706 0.101,1.059 0,0.03 0.01,0.071 0.01,0.101 0.05,0.393 0.1,0.776 0.161,1.169 5.202,1.059 10.132,2.924 14.729,5.575 6.502,3.751 11.926,8.852 16.1,15.001 -0.111,-3.054 -0.162,-6.351 -0.162,-9.779 0,-0.806 0,-1.613 0.011,-2.399 0,-0.575 0.01,-1.149 0.02,-1.714 0.01,-0.564 0.01,-1.119 0.02,-1.673 0.02,-0.666 0.03,-1.331 0.05,-1.976 0.01,-0.434 0.031,-0.867 0.041,-1.291 0.01,-0.423 0.02,-0.836 0.04,-1.25 0.01,-0.413 0.03,-0.826 0.05,-1.23 0.041,-0.826 0.071,-1.633 0.111,-2.409 0.041,-0.756 0.091,-1.492 0.132,-2.198 0.05,-0.726 0.1,-1.421 0.151,-2.097 0.02,-0.272 0.04,-0.534 0.07,-0.796 0.061,-0.787 0.131,-1.523 0.212,-2.228 0.03,-0.313 0.06,-0.615 0.101,-0.908 0.08,-0.735 0.171,-1.411 0.272,-2.026 0.02,-0.161 0.04,-0.312 0.07,-0.464 0.041,-0.292 0.091,-0.574 0.141,-0.836 0.222,-1.21 0.464,-2.107 0.716,-2.642 0.031,-0.08 0.071,-0.161 0.111,-0.222 0.01,-0.01 0.01,-0.02 0.02,-0.03 0.041,-0.08 0.101,-0.141 0.141,-0.181 C -0.232,21.1 -0.192,21.06 -0.141,21.04 -0.091,21.01 -0.05,21 0,21 c 0.05,0 0.091,0.01 0.141,0.04 0.051,0.02 0.091,0.06 0.142,0.111 0.04,0.04 0.1,0.101 0.141,0.181 0.01,0.01 0.01,0.02 0.02,0.03 0.04,0.061 0.08,0.142 0.111,0.222 0.252,0.535 0.494,1.432 0.716,2.642 0.05,0.262 0.1,0.544 0.141,0.836 0.03,0.152 0.05,0.303 0.07,0.464 0.101,0.615 0.192,1.291 0.272,2.026 0.041,0.293 0.071,0.595 0.101,0.908 0.081,0.705 0.151,1.441 0.212,2.228 0.03,0.262 0.05,0.524 0.07,0.796 0.051,0.676 0.101,1.371 0.151,2.097 0.041,0.706 0.091,1.442 0.132,2.198 0.04,0.776 0.07,1.583 0.111,2.409 0.02,0.404 0.04,0.817 0.05,1.23 0.02,0.414 0.03,0.827 0.04,1.25 0.01,0.424 0.031,0.857 0.041,1.291 0.02,0.645 0.03,1.31 0.05,1.976 0.01,0.554 0.01,1.109 0.02,1.673 0.01,0.565 0.02,1.139 0.02,1.714 0.011,0.786 0.011,1.593 0.011,2.399 0,3.428 -0.051,6.725 -0.162,9.779 4.174,-6.149 9.598,-11.25 16.1,-15.001 4.597,-2.651 9.527,-4.516 14.729,-5.575 0.061,-0.393 0.111,-0.776 0.161,-1.169 0,-0.03 0.01,-0.071 0.01,-0.101 0.041,-0.353 0.081,-0.706 0.101,-1.059 0,-0.05 0.01,-0.11 0.01,-0.161 0.031,-0.302 0.051,-0.595 0.061,-0.897 0.01,-0.091 0.02,-0.192 0.02,-0.292 0,-0.091 0,-0.192 0.01,-0.293 0.01,-0.373 0.02,-0.756 0.02,-1.129 C 33.823,15.173 18.651,0 0,0" /></g><g
           id="g44"><g
             id="g46" /><g
             id="g58"><g
               style="opacity:0.30000299"
               id="g56"
               clip-path="url(#clipPath50)"><g
                 id="g54"
                 transform="translate(158.7073,95.807)"><path
                   id="path52"
                   style="fill:#823800;fill-opacity:1;fill-rule:nonzero;stroke:none"
                   d="m 0,0 c -0.251,0.535 -0.492,1.429 -0.714,2.635 -0.05,0.262 -0.1,0.544 -0.141,0.837 -0.03,0.151 -0.05,0.302 -0.07,0.463 -0.101,0.615 -0.192,1.291 -0.272,2.027 -0.041,0.292 -0.071,0.595 -0.101,0.907 -0.081,0.706 -0.151,1.442 -0.212,2.228 -0.03,0.262 -0.05,0.524 -0.07,0.797 -0.051,0.675 -0.101,1.371 -0.152,2.096 -0.04,0.706 -0.09,1.442 -0.131,2.198 -0.04,0.776 -0.07,1.583 -0.111,2.41 -0.02,0.403 -0.04,0.816 -0.05,1.23 -0.02,0.413 -0.03,0.826 -0.04,1.25 -0.01,0.423 -0.031,0.857 -0.041,1.29 -0.02,0.645 -0.03,1.311 -0.05,1.976 -0.01,0.555 -0.01,1.109 -0.02,1.674 -0.01,0.564 -0.02,1.139 -0.02,1.713 -0.011,0.787 -0.011,1.593 -0.011,2.4 0,3.427 0.051,6.724 0.162,9.779 -4.174,-6.15 -9.598,-11.251 -16.1,-15.001 -4.597,-2.652 -9.527,-4.517 -14.729,-5.575 -0.061,-0.394 -0.111,-0.777 -0.161,-1.17 0,-0.03 -0.01,-0.07 -0.01,-0.101 -0.041,-0.352 -0.081,-0.705 -0.101,-1.058 0,-0.051 -0.01,-0.111 -0.01,-0.162 -0.031,-0.302 -0.051,-0.594 -0.061,-0.897 -0.01,-0.09 -0.02,-0.191 -0.02,-0.292 0,-0.091 0,-0.192 -0.01,-0.292 -0.01,-0.373 -0.02,-0.757 -0.02,-1.13 0,-2.578 0.3,-5.087 0.849,-7.502 2.934,0.495 6.029,0.765 9.233,0.765 C -14.182,5.495 -6.017,3.401 0,0" /></g></g></g></g><g
           id="g60"><g
             id="g62" /><g
             id="g74"><g
               style="opacity:0.30000299"
               id="g72"
               clip-path="url(#clipPath66)"><g
                 id="g70"
                 transform="translate(159.8213,95.807)"><path
                   id="path68"
                   style="fill:#823800;fill-opacity:1;fill-rule:nonzero;stroke:none"
                   d="m 0,0 c 0.251,0.535 0.492,1.429 0.714,2.635 0.05,0.262 0.1,0.544 0.141,0.837 0.03,0.151 0.05,0.302 0.07,0.463 0.101,0.615 0.192,1.291 0.272,2.027 0.041,0.292 0.071,0.595 0.101,0.907 0.081,0.706 0.151,1.442 0.212,2.228 0.03,0.262 0.05,0.524 0.07,0.797 0.051,0.675 0.101,1.371 0.152,2.096 0.04,0.706 0.09,1.442 0.131,2.198 0.04,0.776 0.07,1.583 0.111,2.41 0.02,0.403 0.04,0.816 0.05,1.23 0.02,0.413 0.03,0.826 0.04,1.25 0.01,0.423 0.031,0.857 0.041,1.29 0.02,0.645 0.03,1.311 0.05,1.976 0.01,0.555 0.01,1.109 0.02,1.674 0.01,0.564 0.02,1.139 0.02,1.713 0.011,0.787 0.011,1.593 0.011,2.4 0,3.427 -0.051,6.724 -0.162,9.779 4.174,-6.15 9.598,-11.251 16.1,-15.001 4.597,-2.652 9.527,-4.517 14.729,-5.575 0.061,-0.394 0.111,-0.777 0.161,-1.17 0,-0.03 0.01,-0.07 0.01,-0.101 0.041,-0.352 0.081,-0.705 0.101,-1.058 0,-0.051 0.01,-0.111 0.01,-0.162 0.031,-0.302 0.051,-0.594 0.061,-0.897 0.01,-0.09 0.02,-0.191 0.02,-0.292 0,-0.091 0,-0.192 0.01,-0.292 0.01,-0.373 0.02,-0.757 0.02,-1.13 0,-2.578 -0.3,-5.087 -0.849,-7.502 C 29.483,5.225 26.388,5.495 23.184,5.495 14.182,5.495 6.017,3.401 0,0" /></g></g></g></g><g
           transform="translate(99.2022,181.5564)"
           id="g76"><path
             id="path78"
             style="fill:#823800;fill-opacity:1;fill-rule:nonzero;stroke:none"
             d="m 0,0 c 0,-3.331 -2.7,-6.031 -6.031,-6.031 -3.331,0 -6.031,2.7 -6.031,6.031 0,3.32 2.7,6.02 6.031,6.02 C -2.7,6.02 0,3.32 0,0" /></g><g
           transform="translate(124.4718,162.5749)"
           id="g80"><path
             id="path82"
             style="fill:#823800;fill-opacity:1;fill-rule:nonzero;stroke:none"
             d="m 0,0 c 0,-3.319 -2.7,-6.019 -6.031,-6.019 -3.32,0 -6.019,2.7 -6.019,6.019 0,3.331 2.699,6.031 6.019,6.031 C -2.7,6.031 0,3.331 0,0" /></g><g
           transform="translate(231.3833,181.5564)"
           id="g84"><path
             id="path86"
             style="fill:#823800;fill-opacity:1;fill-rule:nonzero;stroke:none"
             d="m 0,0 c 0,-3.331 -2.7,-6.031 -6.031,-6.031 -3.32,0 -6.019,2.7 -6.019,6.031 0,3.32 2.699,6.02 6.019,6.02 C -2.7,6.02 0,3.32 0,0" /></g><g
           transform="translate(206.1019,162.5749)"
           id="g88"><path
             id="path90"
             style="fill:#823800;fill-opacity:1;fill-rule:nonzero;stroke:none"
             d="m 0,0 c 0,-3.319 -2.688,-6.019 -6.019,-6.019 -3.32,0 -6.032,2.7 -6.032,6.019 0,3.331 2.712,6.031 6.032,6.031 C -2.688,6.031 0,3.331 0,0" /></g></g></g></g></svg>