<svg width="26" height="26" viewBox="0 0 26 26" fill="none" xmlns="http://www.w3.org/2000/svg">
<path d="M22.6576 8.41377H16.867C16.4623 8.41377 16.1406 8.09207 16.1406 7.68735C16.1406 7.28264 16.4623 6.96094 16.867 6.96094H22.6576C23.0623 6.96094 23.384 7.28264 23.384 7.68735C23.384 8.09207 23.0623 8.41377 22.6576 8.41377Z" fill="#FC9214"/>
<path d="M7.21179 8.41377H3.35141C2.9467 8.41377 2.625 8.09207 2.625 7.68735C2.625 7.28264 2.9467 6.96094 3.35141 6.96094H7.21179C7.61651 6.96094 7.9382 7.28264 7.9382 7.68735C7.9382 8.09207 7.60613 8.41377 7.21179 8.41377Z" fill="#FC9214"/>
<path d="M11.0678 11.784C13.3317 11.784 15.1669 9.94884 15.1669 7.68499C15.1669 5.42115 13.3317 3.58594 11.0678 3.58594C8.80396 3.58594 6.96875 5.42115 6.96875 7.68499C6.96875 9.94884 8.80396 11.784 11.0678 11.784Z" fill="#FC9214"/>
<path d="M22.6571 19.0231H18.7967C18.392 19.0231 18.0703 18.7014 18.0703 18.2967C18.0703 17.892 18.392 17.5703 18.7967 17.5703H22.6571C23.0618 17.5703 23.3835 17.892 23.3835 18.2967C23.3835 18.7014 23.0618 19.0231 22.6571 19.0231Z" fill="#FC9214"/>
<path d="M9.14198 19.0231H3.35141C2.9467 19.0231 2.625 18.7014 2.625 18.2967C2.625 17.892 2.9467 17.5703 3.35141 17.5703H9.14198C9.54669 17.5703 9.86839 17.892 9.86839 18.2967C9.86839 18.7014 9.53632 19.0231 9.14198 19.0231Z" fill="#FC9214"/>
<path d="M14.9272 22.4169C17.191 22.4169 19.0262 20.5817 19.0262 18.3178C19.0262 16.054 17.191 14.2188 14.9272 14.2188C12.6633 14.2188 10.8281 16.054 10.8281 18.3178C10.8281 20.5817 12.6633 22.4169 14.9272 22.4169Z" fill="#FC9214"/>
</svg>
