<svg width="24" height="25" viewBox="0 0 24 25" fill="none" xmlns="http://www.w3.org/2000/svg">
<path d="M12 2.23438C9.38 2.23438 7.25 4.36438 7.25 6.98438C7.25 9.55437 9.26 11.6344 11.88 11.7244C11.96 11.7144 12.04 11.7144 12.1 11.7244C12.12 11.7244 12.13 11.7244 12.15 11.7244C12.16 11.7244 12.16 11.7244 12.17 11.7244C14.73 11.6344 16.74 9.55437 16.75 6.98438C16.75 4.36438 14.62 2.23438 12 2.23438Z" fill="#FC9214"/>
<path d="M17.0809 14.3872C14.2909 12.5272 9.74094 12.5272 6.93094 14.3872C5.66094 15.2372 4.96094 16.3872 4.96094 17.6172C4.96094 18.8472 5.66094 19.9872 6.92094 20.8272C8.32094 21.7672 10.1609 22.2372 12.0009 22.2372C13.8409 22.2372 15.6809 21.7672 17.0809 20.8272C18.3409 19.9772 19.0409 18.8372 19.0409 17.5972C19.0309 16.3672 18.3409 15.2272 17.0809 14.3872Z" fill="#FC9214"/>
</svg>
