<svg width="21" height="20" viewBox="0 0 21 20" fill="none" xmlns="http://www.w3.org/2000/svg">
<path d="M20.3052 8.04136H19.4997V7.99986H10.4998V11.9998H16.1512C15.3267 14.3283 13.1113 15.9997 10.4998 15.9997C7.18639 15.9997 4.49993 13.3133 4.49993 9.99983C4.49993 6.68639 7.18639 3.99993 10.4998 3.99993C12.0293 3.99993 13.4208 4.57692 14.4803 5.5194L17.3087 2.69095C15.5227 1.02648 13.1338 0 10.4998 0C4.97742 0 0.5 4.47742 0.5 9.99983C0.5 15.5222 4.97742 19.9997 10.4998 19.9997C16.0222 19.9997 20.4997 15.5222 20.4997 9.99983C20.4997 9.32934 20.4307 8.67485 20.3052 8.04136Z" fill="#FFC107"/>
<path d="M1.65625 5.34541L4.94169 7.75487C5.83068 5.55391 7.98364 3.99993 10.5031 3.99993C12.0326 3.99993 13.424 4.57692 14.4835 5.5194L17.312 2.69095C15.526 1.02648 13.1371 0 10.5031 0C6.66216 0 3.33122 2.16846 1.65625 5.34541Z" fill="#FF4931"/>
<path d="M10.5039 19.9963C13.0869 19.9963 15.4338 19.0078 17.2083 17.4003L14.1133 14.7814C13.0756 15.5706 11.8076 15.9974 10.5039 15.9964C7.90295 15.9964 5.69449 14.3379 4.86251 12.0234L1.60156 14.5359C3.25653 17.7743 6.61748 19.9963 10.5039 19.9963Z" fill="#4CAF50"/>
<path d="M20.3053 8.0415H19.4998V8H10.5V11.9999H16.1514C15.757 13.1081 15.0466 14.0765 14.1079 14.7854L14.1094 14.7844L17.2044 17.4033C16.9854 17.6023 20.4998 14.9999 20.4998 9.99997C20.4998 9.32948 20.4308 8.67499 20.3053 8.0415Z" fill="#1976D2"/>
</svg>
