<svg width="26" height="27" viewBox="0 0 26 27" fill="none" xmlns="http://www.w3.org/2000/svg">
<path d="M24.7233 2.14667C23.8318 1.13143 22.5071 0.5 21.0461 0.5C19.6595 0.5 18.3966 1.06952 17.4928 1.9981C16.9728 2.53048 16.5766 3.17429 16.3414 3.89238C16.1804 4.38762 16.0938 4.90762 16.0938 5.45238C16.0938 6.38095 16.3537 7.26 16.8118 8.00286C17.0595 8.42381 17.3814 8.80762 17.7528 9.12952C18.6195 9.9219 19.7709 10.4048 21.0461 10.4048C21.5909 10.4048 22.1109 10.3181 22.5938 10.1448C23.7328 9.78571 24.6861 9.00571 25.2804 8.00286C25.5404 7.5819 25.7385 7.09905 25.8499 6.60381C25.949 6.23238 25.9985 5.84857 25.9985 5.45238C25.9985 4.18952 25.5157 3.02571 24.7233 2.14667ZM22.8909 6.35619H21.9747V7.32191C21.9747 7.82952 21.5538 8.25048 21.0461 8.25048C20.5385 8.25048 20.1176 7.82952 20.1176 7.32191V6.35619H19.2014C18.6938 6.35619 18.2728 5.93524 18.2728 5.42762C18.2728 4.92 18.6938 4.49905 19.2014 4.49905H20.1176V3.62C20.1176 3.11238 20.5385 2.69143 21.0461 2.69143C21.5538 2.69143 21.9747 3.11238 21.9747 3.62V4.49905H22.8909C23.3985 4.49905 23.8195 4.92 23.8195 5.42762C23.8195 5.93524 23.4109 6.35619 22.8909 6.35619Z" fill="white"/>
<path d="M24.7619 14.1153C24.7619 12.4934 24.4524 10.9334 23.8705 9.50961C23.4867 9.78199 23.0533 9.99247 22.5952 10.141C22.459 10.1906 22.3229 10.2277 22.1743 10.2649C22.6448 11.4534 22.9048 12.7534 22.9048 14.1153C22.9048 16.9877 21.741 19.6001 19.859 21.5068C19.5 21.0487 19.0419 20.6277 18.4971 20.2687C15.1419 18.0153 9.64476 18.0153 6.26476 20.2687C5.72 20.6277 5.27429 21.0487 4.90286 21.5068C3.02095 19.6001 1.85714 16.9877 1.85714 14.1153C1.85714 8.30866 6.57429 3.59152 12.381 3.59152C13.7305 3.59152 15.0305 3.85152 16.219 4.32199C16.2562 4.17342 16.2933 4.03723 16.3429 3.88866C16.4914 3.43057 16.7019 3.00961 16.9867 2.6258C15.5629 2.0439 14.0029 1.73438 12.381 1.73438C5.55905 1.73438 0 7.29342 0 14.1153C0 17.7058 1.54762 20.9372 3.99905 23.2029C3.99905 23.2153 3.99905 23.2153 3.98667 23.2277C4.11048 23.3515 4.25905 23.4506 4.38286 23.562C4.45714 23.6239 4.51905 23.6858 4.59333 23.7353C4.81619 23.921 5.06381 24.0944 5.29905 24.2677C5.38571 24.3296 5.46 24.3791 5.54667 24.441C5.78191 24.602 6.02952 24.7506 6.28952 24.8868C6.37619 24.9363 6.47524 24.9982 6.56191 25.0477C6.80952 25.1839 7.06952 25.3077 7.3419 25.4191C7.44095 25.4687 7.54 25.5182 7.63905 25.5553C7.91143 25.6668 8.18381 25.7658 8.45619 25.8525C8.55524 25.8896 8.65429 25.9268 8.75333 25.9515C9.05048 26.0382 9.34762 26.1125 9.64476 26.1868C9.73143 26.2115 9.8181 26.2363 9.91714 26.2487C10.2638 26.3229 10.6105 26.3725 10.9695 26.4096C11.019 26.4096 11.0686 26.422 11.1181 26.4344C11.539 26.4715 11.96 26.4963 12.381 26.4963C12.8019 26.4963 13.2229 26.4715 13.6314 26.4344C13.681 26.4344 13.7305 26.422 13.78 26.4096C14.139 26.3725 14.4857 26.3229 14.8324 26.2487C14.919 26.2363 15.0057 26.1991 15.1048 26.1868C15.4019 26.1125 15.7114 26.0506 15.9962 25.9515C16.0952 25.9144 16.1943 25.8772 16.2933 25.8525C16.5657 25.7534 16.8505 25.6668 17.1105 25.5553C17.2095 25.5182 17.3086 25.4687 17.4076 25.4191C17.6676 25.3077 17.9276 25.1839 18.1876 25.0477C18.2867 24.9982 18.3733 24.9363 18.46 24.8868C18.7076 24.7382 18.9552 24.602 19.2029 24.441C19.2895 24.3915 19.3638 24.3296 19.4505 24.2677C19.6981 24.0944 19.9333 23.921 20.1562 23.7353C20.2305 23.6734 20.2924 23.6115 20.3667 23.562C20.5029 23.4506 20.639 23.3391 20.7629 23.2277C20.7629 23.2153 20.7629 23.2153 20.7505 23.2029C23.2143 20.9372 24.7619 17.7058 24.7619 14.1153Z" fill="white"/>
<path d="M12.3772 7.84375C9.81437 7.84375 7.73438 9.92375 7.73438 12.4866C7.73438 14.9999 9.70295 17.0428 12.3153 17.1171C12.3525 17.1171 12.402 17.1171 12.4268 17.1171C12.4515 17.1171 12.4887 17.1171 12.5134 17.1171C12.5258 17.1171 12.5382 17.1171 12.5382 17.1171C15.0391 17.0304 17.0077 14.9999 17.0201 12.4866C17.0201 9.92375 14.9401 7.84375 12.3772 7.84375Z" fill="white"/>
</svg>
