<svg width="20" height="21" viewBox="0 0 20 21" fill="none" xmlns="http://www.w3.org/2000/svg">
<path d="M10 0.0390625C4.49 0.0390625 0 4.52906 0 10.0391C0 15.5491 4.49 20.0391 10 20.0391C15.51 20.0391 20 15.5491 20 10.0391C20 4.52906 15.51 0.0390625 10 0.0390625ZM14.35 13.6091C14.21 13.8491 13.96 13.9791 13.7 13.9791C13.57 13.9791 13.44 13.9491 13.32 13.8691L10.22 12.0191C9.45 11.5591 8.88 10.5491 8.88 9.65906V5.55906C8.88 5.14906 9.22 4.80906 9.63 4.80906C10.04 4.80906 10.38 5.14906 10.38 5.55906V9.65906C10.38 10.0191 10.68 10.5491 10.99 10.7291L14.09 12.5791C14.45 12.7891 14.57 13.2491 14.35 13.6091Z" fill="#FCBA67"/>
</svg>
