<svg width="19" height="20" viewBox="0 0 19 20" fill="none" xmlns="http://www.w3.org/2000/svg">
<path d="M17.6667 5.7474C18.0809 5.7474 18.4167 5.41161 18.4167 4.9974C18.4167 4.58318 18.0809 4.2474 17.6667 4.2474V5.7474ZM11 4.2474C10.5858 4.2474 10.25 4.58318 10.25 4.9974C10.25 5.41161 10.5858 5.7474 11 5.7474V4.2474ZM15.0833 1.66406C15.0833 1.24985 14.7475 0.914062 14.3333 0.914062C13.9191 0.914062 13.5833 1.24985 13.5833 1.66406H15.0833ZM13.5833 8.33073C13.5833 8.74494 13.9191 9.08073 14.3333 9.08073C14.7475 9.08073 15.0833 8.74494 15.0833 8.33073H13.5833ZM17.6667 4.2474H14.3333V5.7474H17.6667V4.2474ZM14.3333 4.2474H11V5.7474H14.3333V4.2474ZM13.5833 1.66406V4.9974H15.0833V1.66406H13.5833ZM13.5833 4.9974V8.33073H15.0833V4.9974H13.5833Z" fill="#FC9214"/>
<path d="M8.91667 2.5C5.18471 2.5 3.31874 2.5 2.15937 3.65937C1 4.81874 1 6.68471 1 10.4167C1 14.1486 1 16.0146 2.15937 17.174C3.31874 18.3333 5.18471 18.3333 8.91667 18.3333C12.6486 18.3333 14.5146 18.3333 15.674 17.174C16.8333 16.0146 16.8333 14.1486 16.8333 10.4167V10" stroke="#FC9214" stroke-width="1.5" stroke-linecap="round"/>
<path d="M3.5 17.4948C7.00832 13.5353 10.951 8.28437 16.8333 12.2227" stroke="#FC9214" stroke-width="1.5"/>
</svg>
