<svg width="24" height="25" viewBox="0 0 24 25" fill="none" xmlns="http://www.w3.org/2000/svg">
<path d="M12 2.23438C6.49 2.23438 2 6.72437 2 12.2344C2 17.7444 6.49 22.2344 12 22.2344C17.51 22.2344 22 17.7444 22 12.2344C22 6.72437 17.51 2.23438 12 2.23438ZM11.25 8.23438C11.25 7.82438 11.59 7.48438 12 7.48438C12.41 7.48438 12.75 7.82438 12.75 8.23438V13.2344C12.75 13.6444 12.41 13.9844 12 13.9844C11.59 13.9844 11.25 13.6444 11.25 13.2344V8.23438ZM12.92 16.6144C12.87 16.7444 12.8 16.8444 12.71 16.9444C12.61 17.0344 12.5 17.1044 12.38 17.1544C12.26 17.2044 12.13 17.2344 12 17.2344C11.87 17.2344 11.74 17.2044 11.62 17.1544C11.5 17.1044 11.39 17.0344 11.29 16.9444C11.2 16.8444 11.13 16.7444 11.08 16.6144C11.03 16.4944 11 16.3644 11 16.2344C11 16.1044 11.03 15.9744 11.08 15.8544C11.13 15.7344 11.2 15.6244 11.29 15.5244C11.39 15.4344 11.5 15.3644 11.62 15.3144C11.86 15.2144 12.14 15.2144 12.38 15.3144C12.5 15.3644 12.61 15.4344 12.71 15.5244C12.8 15.6244 12.87 15.7344 12.92 15.8544C12.97 15.9744 13 16.1044 13 16.2344C13 16.3644 12.97 16.4944 12.92 16.6144Z" fill="#FC9214"/>
</svg>
