<svg width="20" height="21" viewBox="0 0 20 21" fill="none" xmlns="http://www.w3.org/2000/svg">
<path d="M16.4912 3.91406C14.0246 1.45573 10.0246 1.45573 7.57455 3.91406C5.84955 5.6224 5.33289 8.08073 5.99955 10.2474L2.08289 14.1641C1.80789 14.4474 1.61622 15.0057 1.67455 15.4057L1.92455 17.2224C2.01622 17.8224 2.57455 18.3891 3.17455 18.4724L4.99122 18.7224C5.39122 18.7807 5.94955 18.5974 6.23289 18.3057L6.91622 17.6224C7.08289 17.4641 7.08289 17.1974 6.91622 17.0307L5.29955 15.4141C5.05789 15.1724 5.05789 14.7724 5.29955 14.5307C5.54122 14.2891 5.94122 14.2891 6.18289 14.5307L7.80789 16.1557C7.96622 16.3141 8.23288 16.3141 8.39122 16.1557L10.1579 14.3974C12.3162 15.0724 14.7746 14.5474 16.4912 12.8391C18.9496 10.3807 18.9496 6.3724 16.4912 3.91406ZM12.0829 10.3974C10.9329 10.3974 9.99955 9.46406 9.99955 8.31406C9.99955 7.16406 10.9329 6.23073 12.0829 6.23073C13.2329 6.23073 14.1662 7.16406 14.1662 8.31406C14.1662 9.46406 13.2329 10.3974 12.0829 10.3974Z" fill="#FC9214"/>
</svg>
