<svg width="24" height="25" viewBox="0 0 24 25" fill="none" xmlns="http://www.w3.org/2000/svg">
<path d="M16.8 2.23438H14.2C11 2.23438 9 4.23437 9 7.43437V11.4844H15.25C15.66 11.4844 16 11.8244 16 12.2344C16 12.6444 15.66 12.9844 15.25 12.9844H9V17.0344C9 20.2344 11 22.2344 14.2 22.2344H16.79C19.99 22.2344 21.99 20.2344 21.99 17.0344V7.43437C22 4.23437 20 2.23438 16.8 2.23438Z" fill="#FC9214"/>
<path d="M4.5575 11.4881L6.6275 9.41813C6.7775 9.26813 6.8475 9.07812 6.8475 8.88812C6.8475 8.69812 6.7775 8.49813 6.6275 8.35813C6.3375 8.06813 5.8575 8.06813 5.5675 8.35813L2.2175 11.7081C1.9275 11.9981 1.9275 12.4781 2.2175 12.7681L5.5675 16.1181C5.8575 16.4081 6.3375 16.4081 6.6275 16.1181C6.9175 15.8281 6.9175 15.3481 6.6275 15.0581L4.5575 12.9881H8.9975V11.4881H4.5575Z" fill="#FC9214"/>
</svg>
