<svg width="30" height="31" viewBox="0 0 30 31" fill="none" xmlns="http://www.w3.org/2000/svg">
<g clip-path="url(#clip0_1091_17407)">
<path d="M15 7.89844C15.663 7.89844 16.2989 7.63505 16.7678 7.1662C17.2366 6.69736 17.5 6.06148 17.5 5.39844C17.5 4.92344 17.375 4.48594 17.1375 4.11094L15 0.398438L12.8625 4.11094C12.625 4.48594 12.5 4.92344 12.5 5.39844C12.5 6.06148 12.7634 6.69736 13.2322 7.1662C13.7011 7.63505 14.337 7.89844 15 7.89844ZM20.75 20.3984L19.4125 19.0484L18.0625 20.3984C16.4375 22.0109 13.5875 22.0234 11.95 20.3984L10.625 19.0484L9.25 20.3984C8.53255 21.1058 7.59121 21.5414 6.58759 21.6304C5.58397 21.7193 4.58069 21.4561 3.75 20.8859V26.6484C3.75 26.98 3.8817 27.2979 4.11612 27.5323C4.35054 27.7667 4.66848 27.8984 5 27.8984H25C25.3315 27.8984 25.6495 27.7667 25.8839 27.5323C26.1183 27.2979 26.25 26.98 26.25 26.6484V20.8859C25.4193 21.4561 24.416 21.7193 23.4124 21.6304C22.4088 21.5414 21.4675 21.1058 20.75 20.3984ZM22.5 11.6484H16.25V9.14844H13.75V11.6484H7.5C6.50544 11.6484 5.55161 12.0435 4.84835 12.7468C4.14509 13.45 3.75 14.4039 3.75 15.3984V17.3234C3.75 18.6734 4.85 19.7734 6.2 19.7734C6.875 19.7734 7.5 19.5234 7.925 19.0609L10.625 16.3984L13.2625 19.0609C14.1875 19.9859 15.8 19.9859 16.725 19.0609L19.375 16.3984L22.0625 19.0609C22.5 19.5234 23.125 19.7734 23.7875 19.7734C25.1375 19.7734 26.25 18.6734 26.25 17.3234V15.3984C26.25 14.4039 25.8549 13.45 25.1517 12.7468C24.4484 12.0435 23.4946 11.6484 22.5 11.6484Z" fill="#FC9214"/>
</g>
<defs>
<clipPath id="clip0_1091_17407">
<rect width="30" height="30" fill="white" transform="translate(0 0.398438)"/>
</clipPath>
</defs>
</svg>
