<svg width="25" height="25" viewBox="0 0 25 25" fill="none" xmlns="http://www.w3.org/2000/svg">
<path d="M6.5 2.79688C5.96957 2.79688 5.46086 3.00759 5.08579 3.38266C4.71071 3.75773 4.5 4.26644 4.5 4.79688V20.7969C4.5 21.3273 4.71071 21.836 5.08579 22.2111C5.46086 22.5862 5.96957 22.7969 6.5 22.7969H18.5C19.0304 22.7969 19.5391 22.5862 19.9142 22.2111C20.2893 21.836 20.5 21.3273 20.5 20.7969V4.79688C20.5 4.26644 20.2893 3.75773 19.9142 3.38266C19.5391 3.00759 19.0304 2.79688 18.5 2.79688H6.5ZM12.5 5.79688C13.8261 5.79688 15.0979 6.32366 16.0355 7.26134C16.9732 8.19902 17.5 9.47079 17.5 10.7969C17.5 12.123 16.9732 13.3947 16.0355 14.3324C15.0979 15.2701 13.8261 15.7969 12.5 15.7969C11.1739 15.7969 9.90215 15.2701 8.96447 14.3324C8.02678 13.3947 7.5 12.123 7.5 10.7969C7.5 9.47079 8.02678 8.19902 8.96447 7.26134C9.90215 6.32366 11.1739 5.79688 12.5 5.79688ZM12.5 6.79688C12.09 7.41687 11.75 8.08687 11.54 8.79688H13.46C13.2452 8.08462 12.9214 7.40994 12.5 6.79688ZM11.2 7.01687C10.28 7.32687 9.5 7.96688 9.04 8.79688H10.5C10.68 8.17688 10.9 7.57687 11.2 7.01687ZM13.79 7.01687C14.09 7.57687 14.32 8.17688 14.5 8.79688H15.96C15.5 7.96688 14.71 7.33687 13.79 7.01687ZM8.63 9.79688C8.55 10.1169 8.5 10.4469 8.5 10.7969C8.5 11.1469 8.55 11.4769 8.63 11.7969H10.32C10.28 11.4669 10.25 11.1369 10.25 10.7969C10.25 10.4569 10.28 10.1269 10.32 9.79688H8.63ZM11.33 9.79688C11.28 10.1169 11.25 10.4569 11.25 10.7969C11.25 11.1369 11.28 11.4669 11.33 11.7969H13.67C13.71 11.4669 13.75 11.1369 13.75 10.7969C13.75 10.4569 13.71 10.1169 13.67 9.79688H11.33ZM14.68 9.79688C14.72 10.1269 14.75 10.4569 14.75 10.7969C14.75 11.1369 14.72 11.4669 14.68 11.7969H16.37C16.45 11.4769 16.5 11.1469 16.5 10.7969C16.5 10.4469 16.45 10.1169 16.37 9.79688H14.68ZM9.04 12.7969C9.5 13.6269 10.28 14.2569 11.2 14.5769C10.9 14.0169 10.68 13.4269 10.5 12.7969H9.04ZM11.54 12.7969C11.75 13.5169 12.09 14.1769 12.5 14.7969C12.92 14.1769 13.25 13.5169 13.46 12.7969H11.54ZM14.5 12.7969C14.32 13.4269 14.09 14.0169 13.79 14.5769C14.71 14.2569 15.5 13.6269 15.96 12.7969H14.5ZM7.5 17.7969H17.5V19.7969H7.5V17.7969Z" fill="white"/>
</svg>
