<svg width="21" height="22" viewBox="0 0 21 22" fill="none" xmlns="http://www.w3.org/2000/svg">
<path d="M18.9131 3.39413C17.473 1.20577 15.5018 0 13.3636 0H7.63636C5.49818 0 3.52705 1.20577 2.08688 3.39413C0.740966 5.43865 0 8.14423 0 11C0 13.8558 0.740966 16.5613 2.08688 18.6059C3.52705 20.7942 5.49818 22 7.63636 22H13.3636C15.5018 22 17.473 20.7942 18.9131 18.6059C20.259 16.5613 21 13.8558 21 11C21 8.14423 20.259 5.43865 18.9131 3.39413ZM19.0659 10.1538H15.2477C15.1731 8.4175 14.783 6.70319 14.0927 5.07692H17.7426C18.4728 6.49212 18.9549 8.25 19.0659 10.1538ZM16.6079 3.38462H13.1799C12.7813 2.77142 12.3005 2.20319 11.7481 1.69231H13.3636C14.5568 1.69231 15.6784 2.32692 16.6079 3.38462ZM13.3636 20.3077H11.7516C12.3041 19.7968 12.7849 19.2286 13.1835 18.6154H16.6115C15.6784 19.6731 14.5568 20.3077 13.3636 20.3077ZM17.7426 16.9231H14.0939C14.7842 15.2968 15.1742 13.5825 15.2489 11.8462H19.067C18.9549 13.75 18.4728 15.5079 17.7426 16.9231Z" fill="white"/>
</svg>
