<svg width="24" height="25" viewBox="0 0 24 25" fill="none" xmlns="http://www.w3.org/2000/svg">
<path d="M12.6761 20.1933C12.9508 20.2572 12.976 20.6171 12.7084 20.7062L11.1284 21.2262C7.15839 22.5063 5.06839 21.4362 3.77839 17.4662L2.49839 13.5162C1.21839 9.54625 2.27839 7.44625 6.24839 6.16625L6.77238 5.99272C7.17525 5.8593 7.56731 6.26336 7.45292 6.67203C7.39622 6.87461 7.34167 7.08601 7.28839 7.30625L6.30839 11.4963C5.20839 16.2063 6.81839 18.8063 11.5284 19.9263L12.6761 20.1933Z" fill="#FC9214"/>
<path d="M17.1702 3.44292L15.5002 3.05292C12.1602 2.26292 10.1702 2.91292 9.00018 5.33292C8.70018 5.94292 8.46018 6.68292 8.26018 7.53292L7.28018 11.7229C6.30018 15.9029 7.59018 17.9629 11.7602 18.9529L13.4402 19.3529C14.0202 19.4929 14.5602 19.5829 15.0602 19.6229C18.1802 19.9229 19.8402 18.4629 20.6802 14.8529L21.6602 10.6729C22.6402 6.49292 21.3602 4.42292 17.1702 3.44292ZM15.2902 13.5629C15.2002 13.9029 14.9002 14.1229 14.5602 14.1229C14.5002 14.1229 14.4402 14.1129 14.3702 14.1029L11.4602 13.3629C11.0602 13.2629 10.8202 12.8529 10.9202 12.4529C11.0202 12.0529 11.4302 11.8129 11.8302 11.9129L14.7402 12.6529C15.1502 12.7529 15.3902 13.1629 15.2902 13.5629ZM18.2202 10.1829C18.1302 10.5229 17.8302 10.7429 17.4902 10.7429C17.4302 10.7429 17.3702 10.7329 17.3002 10.7229L12.4502 9.49292C12.0502 9.39292 11.8102 8.98292 11.9102 8.58292C12.0102 8.18292 12.4202 7.94292 12.8202 8.04292L17.6702 9.27292C18.0802 9.36292 18.3202 9.77292 18.2202 10.1829Z" fill="#FC9214"/>
</svg>
