<svg width="30" height="30" viewBox="0 0 30 30" fill="none" xmlns="http://www.w3.org/2000/svg">
<path d="M24.1696 18.1125L22.9196 16.0375C22.6571 15.575 22.4196 14.7 22.4196 14.1875V11.025C22.4196 8.0875 20.6946 5.55 18.2071 4.3625C17.5571 3.2125 16.3571 2.5 14.9821 2.5C13.6196 2.5 12.3946 3.2375 11.7446 4.4C9.30706 5.6125 7.61956 8.125 7.61956 11.025V14.1875C7.61956 14.7 7.38206 15.575 7.11956 16.025L5.85706 18.1125C5.35706 18.95 5.24456 19.875 5.55706 20.725C5.85706 21.5625 6.56956 22.2125 7.49456 22.525C9.91956 23.35 12.4696 23.75 15.0196 23.75C17.5696 23.75 20.1196 23.35 22.5446 22.5375C23.4196 22.25 24.0946 21.5875 24.4196 20.725C24.7446 19.8625 24.6571 18.9125 24.1696 18.1125Z" fill="#823800"/>
<path d="M18.5469 25.0203C18.0219 26.4703 16.6344 27.5078 15.0094 27.5078C14.0219 27.5078 13.0469 27.1078 12.3594 26.3953C11.9594 26.0203 11.6594 25.5203 11.4844 25.0078C11.6469 25.0328 11.8094 25.0453 11.9844 25.0703C12.2719 25.1078 12.5719 25.1453 12.8719 25.1703C13.5844 25.2328 14.3094 25.2703 15.0344 25.2703C15.7469 25.2703 16.4594 25.2328 17.1594 25.1703C17.4219 25.1453 17.6844 25.1328 17.9344 25.0953C18.1344 25.0703 18.3344 25.0453 18.5469 25.0203Z" fill="#823800"/>
</svg>
