<svg width="30" height="31" viewBox="0 0 30 31" fill="none" xmlns="http://www.w3.org/2000/svg">
<path d="M28.125 12.3516C28.125 20.5547 15.9621 27.1945 15.4441 27.4688C15.3076 27.5422 15.155 27.5806 15 27.5806C14.845 27.5806 14.6924 27.5422 14.5559 27.4688C14.0379 27.1945 1.875 20.5547 1.875 12.3516C1.87717 10.4253 2.64335 8.57849 4.00545 7.21639C5.36755 5.85429 7.21433 5.08811 9.14062 5.08594C11.5605 5.08594 13.6793 6.12656 15 7.88555C16.3207 6.12656 18.4395 5.08594 20.8594 5.08594C22.7857 5.08811 24.6325 5.85429 25.9946 7.21639C27.3566 8.57849 28.1228 10.4253 28.125 12.3516Z" fill="#FC9214"/>
</svg>
