<svg width="36" height="37" viewBox="0 0 36 37" fill="none" xmlns="http://www.w3.org/2000/svg">
<path opacity="0.4" d="M28.6056 29.9093C28.3206 29.9093 28.0356 29.8043 27.8106 29.5793C27.3756 29.1443 27.3756 28.4243 27.8106 27.9893C33.2256 22.5743 33.2256 13.7694 27.8106 8.36937C27.3756 7.93437 27.3756 7.21438 27.8106 6.77938C28.2456 6.34438 28.9656 6.34438 29.4006 6.77938C35.6856 13.0644 35.6856 23.2943 29.4006 29.5793C29.1756 29.8043 28.8906 29.9093 28.6056 29.9093Z" fill="#FC9214"/>
<path opacity="0.4" d="M7.39156 29.9093C7.10656 29.9093 6.82156 29.8043 6.59656 29.5793C0.311562 23.2943 0.311562 13.0644 6.59656 6.77938C7.03156 6.34438 7.75156 6.34438 8.18656 6.77938C8.62156 7.21438 8.62156 7.93437 8.18656 8.36937C2.77156 13.7844 2.77156 22.5893 8.18656 27.9893C8.62156 28.4243 8.62156 29.1443 8.18656 29.5793C7.96156 29.8043 7.67656 29.9093 7.39156 29.9093Z" fill="#FC9214"/>
<path opacity="0.4" d="M18.0021 34.2437C16.1271 34.2287 14.3421 33.9286 12.6771 33.3436C12.0921 33.1336 11.7771 32.4887 11.9871 31.9037C12.1971 31.3187 12.8271 31.0036 13.4271 31.2136C14.8671 31.7086 16.3971 31.9787 18.0171 31.9787C19.6221 31.9787 21.1671 31.7086 22.5921 31.2136C23.1771 31.0186 23.8221 31.3187 24.0321 31.9037C24.2421 32.4887 23.9271 33.1336 23.3421 33.3436C21.6621 33.9286 19.8771 34.2437 18.0021 34.2437Z" fill="#FC9214"/>
<path opacity="0.4" d="M22.9514 5.19226C22.8314 5.19226 22.6964 5.1772 22.5764 5.1322C21.1364 4.6372 19.5914 4.36719 17.9864 4.36719C16.3814 4.36719 14.8514 4.6372 13.4114 5.1322C12.8264 5.3272 12.1815 5.02726 11.9715 4.44226C11.7615 3.85726 12.0764 3.21223 12.6614 3.00223C14.3264 2.41723 16.1264 2.11719 17.9864 2.11719C19.8464 2.11719 21.6465 2.41723 23.3115 3.00223C23.8965 3.21223 24.2114 3.85726 24.0014 4.44226C23.8514 4.90726 23.4164 5.19226 22.9514 5.19226Z" fill="#FC9214"/>
<path d="M13.1094 18.1779V15.673C13.1094 12.553 15.3144 11.2779 18.0144 12.8379L20.1894 14.098L22.3644 15.3579C25.0644 16.9179 25.0644 19.468 22.3644 21.028L20.1894 22.2879L18.0144 23.548C15.3144 25.108 13.1094 23.8329 13.1094 20.7129V18.1779Z" fill="#FC9214"/>
</svg>
