<svg width="18" height="18" viewBox="0 0 18 18" fill="none" xmlns="http://www.w3.org/2000/svg">
<path d="M8.99639 15.3421C9.36571 15.3421 9.67461 15.0483 9.67461 14.6867V9.67721H14.541C14.9026 9.67721 15.2192 9.36864 15.2192 8.99932C15.2192 8.63032 14.9026 8.32882 14.541 8.32882H9.67461V3.31132C9.67461 2.95004 9.36571 2.65625 8.99639 2.65625C8.62739 2.65625 8.32589 2.95004 8.32589 3.31164V8.32914H3.45946C3.09786 8.32914 2.78125 8.63032 2.78125 8.99932C2.78125 9.36832 3.09786 9.67754 3.45946 9.67754H8.32589V14.687C8.32589 15.0486 8.62739 15.3427 8.99639 15.3427" fill="white"/>
</svg>
