<svg width="20" height="20" viewBox="0 0 20 20" fill="none" xmlns="http://www.w3.org/2000/svg">
<path d="M16.2547 4.8724L11.3047 2.01406C10.4964 1.5474 9.49635 1.5474 8.67969 2.01406L3.73802 4.8724C2.92969 5.33906 2.42969 6.20573 2.42969 7.1474V12.8474C2.42969 13.7807 2.92969 14.6474 3.73802 15.1224L8.68802 17.9807C9.49635 18.4474 10.4964 18.4474 11.313 17.9807L16.263 15.1224C17.0714 14.6557 17.5714 13.7891 17.5714 12.8474V7.1474C17.563 6.20573 17.063 5.3474 16.2547 4.8724ZM9.99635 6.11406C11.0714 6.11406 11.938 6.98073 11.938 8.05573C11.938 9.13073 11.0714 9.9974 9.99635 9.9974C8.92135 9.9974 8.05469 9.13073 8.05469 8.05573C8.05469 6.98906 8.92135 6.11406 9.99635 6.11406ZM12.2297 13.8807H7.76302C7.08802 13.8807 6.69635 13.1307 7.07135 12.5724C7.63802 11.7307 8.73802 11.1641 9.99635 11.1641C11.2547 11.1641 12.3547 11.7307 12.9214 12.5724C13.2964 13.1224 12.8964 13.8807 12.2297 13.8807Z" fill="#FC9214"/>
</svg>
