<svg width="20" height="21" viewBox="0 0 20 21" fill="none" xmlns="http://www.w3.org/2000/svg">
<path d="M9.9974 2.0625C7.81406 2.0625 6.03906 3.8375 6.03906 6.02083C6.03906 8.1625 7.71406 9.89583 9.8974 9.97083C9.96406 9.9625 10.0307 9.9625 10.0807 9.97083C10.0974 9.97083 10.1057 9.97083 10.1224 9.97083C10.1307 9.97083 10.1307 9.97083 10.1391 9.97083C12.2724 9.89583 13.9474 8.1625 13.9557 6.02083C13.9557 3.8375 12.1807 2.0625 9.9974 2.0625Z" fill="#FC9214"/>
<path d="M14.2328 12.1938C11.9078 10.6437 8.11615 10.6437 5.77448 12.1938C4.71615 12.9021 4.13281 13.8604 4.13281 14.8854C4.13281 15.9104 4.71615 16.8604 5.76615 17.5604C6.93281 18.3438 8.46615 18.7354 9.99948 18.7354C11.5328 18.7354 13.0661 18.3438 14.2328 17.5604C15.2828 16.8521 15.8661 15.9021 15.8661 14.8688C15.8578 13.8438 15.2828 12.8938 14.2328 12.1938Z" fill="#FC9214"/>
</svg>
