<svg width="25" height="25" viewBox="0 0 25 25" fill="none" xmlns="http://www.w3.org/2000/svg">
<path d="M16.5963 2.20312H8.21625C4.57625 2.20312 2.40625 4.37312 2.40625 8.01312V16.3831C2.40625 20.0331 4.57625 22.2031 8.21625 22.2031H16.5863C20.2262 22.2031 22.3962 20.0331 22.3962 16.3931V8.01312C22.4062 4.37312 20.2362 2.20312 16.5963 2.20312ZM8.87625 11.1831C9.16625 10.8931 9.64625 10.8931 9.93625 11.1831L11.6562 12.9031V6.71313C11.6562 6.30313 11.9963 5.96313 12.4062 5.96313C12.8162 5.96313 13.1562 6.30313 13.1562 6.71313V12.9031L14.8763 11.1831C15.1663 10.8931 15.6462 10.8931 15.9362 11.1831C16.2262 11.4731 16.2262 11.9531 15.9362 12.2431L12.9362 15.2431C12.8663 15.3131 12.7863 15.3631 12.6962 15.4031C12.6062 15.4431 12.5063 15.4631 12.4062 15.4631C12.3062 15.4631 12.2163 15.4431 12.1163 15.4031C12.0262 15.3631 11.9462 15.3131 11.8763 15.2431L8.87625 12.2431C8.58625 11.9531 8.58625 11.4831 8.87625 11.1831ZM18.6462 17.4231C16.6362 18.0931 14.5262 18.4331 12.4062 18.4331C10.2863 18.4331 8.17625 18.0931 6.16625 17.4231C5.77625 17.2931 5.56625 16.8631 5.69625 16.4731C5.82625 16.0831 6.24625 15.8631 6.64625 16.0031C10.3663 17.2431 14.4563 17.2431 18.1763 16.0031C18.5662 15.8731 18.9963 16.0831 19.1262 16.4731C19.2463 16.8731 19.0362 17.2931 18.6462 17.4231Z" fill="#FC9214"/>
</svg>
