<svg width="24" height="25" viewBox="0 0 24 25" fill="none" xmlns="http://www.w3.org/2000/svg">
<path d="M20 6.14844H14C13.59 6.14844 13.25 5.80844 13.25 5.39844C13.25 4.98844 13.59 4.64844 14 4.64844H20C20.41 4.64844 20.75 4.98844 20.75 5.39844C20.75 5.80844 20.41 6.14844 20 6.14844Z" fill="#292D32"/>
<path d="M17 9.14844H14C13.59 9.14844 13.25 8.80844 13.25 8.39844C13.25 7.98844 13.59 7.64844 14 7.64844H17C17.41 7.64844 17.75 7.98844 17.75 8.39844C17.75 8.80844 17.41 9.14844 17 9.14844Z" fill="#292D32"/>
<path d="M11.5 22.1484C5.85 22.1484 1.25 17.5484 1.25 11.8984C1.25 6.24844 5.85 1.64844 11.5 1.64844C11.91 1.64844 12.25 1.98844 12.25 2.39844C12.25 2.80844 11.91 3.14844 11.5 3.14844C6.67 3.14844 2.75 7.07844 2.75 11.8984C2.75 16.7184 6.67 20.6484 11.5 20.6484C16.33 20.6484 20.25 16.7184 20.25 11.8984C20.25 11.4884 20.59 11.1484 21 11.1484C21.41 11.1484 21.75 11.4884 21.75 11.8984C21.75 17.5484 17.15 22.1484 11.5 22.1484Z" fill="#292D32"/>
<path d="M21.9975 23.1459C21.8075 23.1459 21.6175 23.0759 21.4675 22.9259L19.4675 20.9259C19.1775 20.6359 19.1775 20.1559 19.4675 19.8659C19.7575 19.5759 20.2375 19.5759 20.5275 19.8659L22.5275 21.8659C22.8175 22.1559 22.8175 22.6359 22.5275 22.9259C22.3775 23.0759 22.1875 23.1459 21.9975 23.1459Z" fill="#292D32"/>
</svg>
