<svg width="26" height="26" viewBox="0 0 26 26" fill="none" xmlns="http://www.w3.org/2000/svg">
<path d="M22.6576 8.8122H16.867C16.4623 8.8122 16.1406 8.49051 16.1406 8.08579C16.1406 7.68107 16.4623 7.35938 16.867 7.35938H22.6576C23.0623 7.35938 23.384 7.68107 23.384 8.08579C23.384 8.49051 23.0623 8.8122 22.6576 8.8122Z" fill="#FC9214"/>
<path d="M7.21179 8.8122H3.35141C2.9467 8.8122 2.625 8.49051 2.625 8.08579C2.625 7.68107 2.9467 7.35938 3.35141 7.35938H7.21179C7.61651 7.35938 7.9382 7.68107 7.9382 8.08579C7.9382 8.49051 7.60613 8.8122 7.21179 8.8122Z" fill="#FC9214"/>
<path d="M11.0678 12.1825C13.3317 12.1825 15.1669 10.3473 15.1669 8.08343C15.1669 5.81958 13.3317 3.98438 11.0678 3.98438C8.80396 3.98438 6.96875 5.81958 6.96875 8.08343C6.96875 10.3473 8.80396 12.1825 11.0678 12.1825Z" fill="#FC9214"/>
<path d="M22.6571 19.4216H18.7967C18.392 19.4216 18.0703 19.0999 18.0703 18.6952C18.0703 18.2904 18.392 17.9688 18.7967 17.9688H22.6571C23.0618 17.9688 23.3835 18.2904 23.3835 18.6952C23.3835 19.0999 23.0618 19.4216 22.6571 19.4216Z" fill="#FC9214"/>
<path d="M9.14198 19.4216H3.35141C2.9467 19.4216 2.625 19.0999 2.625 18.6952C2.625 18.2904 2.9467 17.9688 3.35141 17.9688H9.14198C9.54669 17.9688 9.86839 18.2904 9.86839 18.6952C9.86839 19.0999 9.53632 19.4216 9.14198 19.4216Z" fill="#FC9214"/>
<path d="M14.9272 22.8153C17.191 22.8153 19.0262 20.9801 19.0262 18.7162C19.0262 16.4524 17.191 14.6172 14.9272 14.6172C12.6633 14.6172 10.8281 16.4524 10.8281 18.7162C10.8281 20.9801 12.6633 22.8153 14.9272 22.8153Z" fill="#FC9214"/>
</svg>
