<svg width="35" height="34" viewBox="0 0 35 34" fill="none" xmlns="http://www.w3.org/2000/svg">
<path d="M11.55 11.9C8.61936 11.9 5.80875 13.0642 3.73647 15.1365C1.66419 17.2087 0.5 20.0194 0.5 22.95C0.5 24.4011 0.785817 25.838 1.34113 27.1786C1.89645 28.5193 2.71038 29.7374 3.73647 30.7635C5.80875 32.8358 8.61936 34 11.55 34C13.0011 34 14.438 33.7142 15.7787 33.1589C17.1193 32.6036 18.3374 31.7896 19.3635 30.7635C20.3896 29.7374 21.2036 28.5193 21.7589 27.1786C22.3142 25.838 22.6 24.4011 22.6 22.95V20.247L34.5 17V11.9H15.8V15.3H12.4V11.9H11.55ZM15.8 0V8.5H12.4V0H15.8ZM7.895 8.976C6.756 9.248 5.668 9.656 4.631 10.2L0.738 4.896L3.492 2.89L7.895 8.976ZM27.462 4.896L24.844 8.5H20.645L24.708 2.89L27.462 4.896Z" fill="#FC9214"/>
</svg>
