<svg width="20" height="21" viewBox="0 0 20 21" fill="none" xmlns="http://www.w3.org/2000/svg">
<path d="M14.1641 3.3125H5.83073C3.33073 3.3125 1.66406 4.5625 1.66406 7.47917V13.3125C1.66406 16.2292 3.33073 17.4792 5.83073 17.4792H14.1641C16.6641 17.4792 18.3307 16.2292 18.3307 13.3125V7.47917C18.3307 4.5625 16.6641 3.3125 14.1641 3.3125ZM14.5557 8.3875L11.9474 10.4708C11.3974 10.9125 10.6974 11.1292 9.9974 11.1292C9.2974 11.1292 8.58906 10.9125 8.0474 10.4708L5.43906 8.3875C5.1724 8.17083 5.13073 7.77083 5.33906 7.50417C5.55573 7.2375 5.9474 7.1875 6.21406 7.40417L8.8224 9.4875C9.45573 9.99583 10.5307 9.99583 11.1641 9.4875L13.7724 7.40417C14.0391 7.1875 14.4391 7.22917 14.6474 7.50417C14.8641 7.77083 14.8224 8.17083 14.5557 8.3875Z" fill="#FC9214"/>
</svg>
