<svg width="20" height="21" viewBox="0 0 20 21" fill="none" xmlns="http://www.w3.org/2000/svg">
<path d="M15 2.0625H5C3.61667 2.0625 2.5 3.17083 2.5 4.5375V13.6292C2.5 14.9958 3.61667 16.1125 5 16.1125H5.63333C6.29167 16.1125 6.93333 16.3708 7.4 16.8375L8.825 18.2458C9.475 18.8875 10.525 18.8875 11.175 18.2458L12.6 16.8375C13.0667 16.3708 13.7083 16.1125 14.3667 16.1125H15C16.3833 16.1125 17.5 14.9958 17.5 13.6292V4.5375C17.5 3.17083 16.3833 2.0625 15 2.0625ZM10 5.02083C10.9 5.02083 11.625 5.75417 11.625 6.64583C11.625 7.52917 10.925 8.2375 10.0583 8.27083C10.025 8.27083 9.975 8.27083 9.93333 8.27083C9.05833 8.2375 8.36667 7.52917 8.36667 6.64583C8.375 5.75417 9.1 5.02083 10 5.02083ZM12.2917 12.6375C11.0333 13.4792 8.96667 13.4792 7.70833 12.6375C6.6 11.9042 6.6 10.6875 7.70833 9.94583C8.975 9.10417 11.0417 9.10417 12.2917 9.94583C13.4 10.6875 13.4 11.8958 12.2917 12.6375Z" fill="#FC9214"/>
</svg>
