<svg width="24" height="24" viewBox="0 0 24 24" fill="none" xmlns="http://www.w3.org/2000/svg">
<path d="M16.8909 0.570312H7.11427C2.8676 0.570312 0.335938 3.10198 0.335938 7.34865V17.1253C0.335938 21.372 2.8676 23.9036 7.11427 23.9036H16.8909C21.1376 23.9036 23.6693 21.372 23.6693 17.1253V7.34865C23.6693 3.10198 21.1376 0.570312 16.8909 0.570312ZM9.63427 15.6203L7.00927 18.2453C6.83427 18.4203 6.6126 18.502 6.39094 18.502C6.16927 18.502 5.93594 18.4203 5.7726 18.2453L4.8976 17.3703C4.5476 17.032 4.5476 16.472 4.8976 16.1336C5.23594 15.7953 5.78427 15.7953 6.13427 16.1336L6.39094 16.3903L8.3976 14.3836C8.73594 14.0453 9.28427 14.0453 9.63427 14.3836C9.9726 14.722 9.9726 15.282 9.63427 15.6203ZM9.63427 7.45365L7.00927 10.0786C6.83427 10.2536 6.6126 10.3353 6.39094 10.3353C6.16927 10.3353 5.93594 10.2536 5.7726 10.0786L4.8976 9.20365C4.5476 8.86531 4.5476 8.30531 4.8976 7.96698C5.23594 7.62865 5.78427 7.62865 6.13427 7.96698L6.39094 8.22365L8.3976 6.21698C8.73594 5.87865 9.28427 5.87865 9.63427 6.21698C9.9726 6.55531 9.9726 7.11531 9.63427 7.45365ZM18.4893 17.627H12.3643C11.8859 17.627 11.4893 17.2303 11.4893 16.752C11.4893 16.2736 11.8859 15.877 12.3643 15.877H18.4893C18.9793 15.877 19.3643 16.2736 19.3643 16.752C19.3643 17.2303 18.9793 17.627 18.4893 17.627ZM18.4893 9.46031H12.3643C11.8859 9.46031 11.4893 9.06365 11.4893 8.58531C11.4893 8.10698 11.8859 7.71031 12.3643 7.71031H18.4893C18.9793 7.71031 19.3643 8.10698 19.3643 8.58531C19.3643 9.06365 18.9793 9.46031 18.4893 9.46031Z" fill="#FC9214"/>
</svg>
