<svg width="30" height="31" viewBox="0 0 30 31" fill="none" xmlns="http://www.w3.org/2000/svg">
<path d="M17.9365 12.4574C20.3243 12.4574 21.7937 8.96763 21.7937 6.76355C21.7937 4.92682 20.8753 2.72274 19.0386 2.72274C16.6508 2.72274 15.1814 6.21253 15.1814 8.41661C15.1814 10.2533 16.0998 12.4574 17.9365 12.4574ZM10.957 12.4574C12.7937 12.4574 13.7121 10.2533 13.7121 8.41661C13.7121 6.02886 12.2427 2.53906 9.85491 2.53906C8.01818 2.53906 7.09981 4.74314 7.09981 6.57988C6.91614 8.96763 8.38552 12.4574 10.957 12.4574ZM24.5488 10.6207C22.161 10.6207 20.508 13.9268 20.508 16.3146C20.508 17.9676 21.2427 19.6207 22.8957 19.6207C25.2835 19.6207 26.9365 16.3146 26.9365 13.9268C26.9365 12.2738 26.0182 10.6207 24.5488 10.6207ZM8.5692 16.3146C8.5692 13.9268 6.73246 10.6207 4.52838 10.6207C2.87532 10.6207 2.14062 12.2738 2.14062 13.9268C2.14062 16.3146 3.97736 19.6207 6.18144 19.6207C7.8345 19.6207 8.5692 17.9676 8.5692 16.3146ZM14.4467 15.9472C10.7733 15.9472 5.81409 21.8248 5.81409 25.8656C5.81409 27.7023 7.09981 28.2533 8.5692 28.2533C10.7733 28.2533 12.4263 26.784 14.4467 26.784C16.2835 26.784 17.9365 28.2533 19.957 28.2533C21.4263 28.2533 23.0794 27.886 23.0794 25.8656C23.0794 21.8248 18.1202 15.9472 14.4467 15.9472Z" fill="#FC9214"/>
</svg>
