<svg width="33" height="34" viewBox="0 0 33 34" fill="none" xmlns="http://www.w3.org/2000/svg">
<path d="M31.3872 29.2732C32.6982 27.4517 32.9219 25.063 31.9738 23.0291C31.3143 21.616 30.5218 19.9144 29.7537 18.2695C28.9563 16.5598 27.514 15.2374 25.7427 14.5925C23.9698 13.9475 22.0138 14.0334 20.3057 14.8307C19.3609 15.2699 18.6997 15.5794 18.6997 15.5794C17.8846 15.7625 17.1796 15.6296 16.8264 14.8728C16.1992 13.5245 15.2009 11.387 14.4279 9.72751C14.1281 9.08576 13.5868 8.58987 12.9224 8.3484C12.258 8.10694 11.5255 8.13773 10.8837 8.43753C10.2436 8.73572 9.74771 9.27699 9.50624 9.94142C9.26316 10.6059 9.29557 11.34 9.59538 11.9801C11.5174 16.1044 15.2285 24.0614 15.2285 24.0614C15.2285 24.0614 13.1704 23.2106 11.3359 22.4538C10.605 22.1524 9.78336 22.1621 9.05897 22.4798C8.33619 22.799 7.77385 23.4003 7.50322 24.1425C7.50322 24.1441 7.5016 24.1457 7.5016 24.1473C6.96519 25.6204 7.71389 27.2507 9.18051 27.8033C11.6859 28.7481 15.0648 30.0203 15.0648 30.0203C17.7712 31.0056 18.4761 31.3378 19.4954 33.2744C19.9265 33.9388 20.7822 34.1852 21.5017 33.8497C24.537 32.469 31.3872 29.2732 31.3872 29.2732Z" fill="#FC9214"/>
<path fill-rule="evenodd" clip-rule="evenodd" d="M10.3466 5.07586C10.6302 5.68519 10.3677 6.40796 9.75999 6.69156C9.15228 6.97516 8.42788 6.71263 8.14428 6.1033L6.73925 3.08904C6.45565 2.48132 6.71818 1.75693 7.3259 1.47333C7.93361 1.18973 8.658 1.45388 8.9416 2.06159L10.3466 5.07586Z" fill="#FC9214"/>
<path fill-rule="evenodd" clip-rule="evenodd" d="M15.8494 4.75665C15.6209 5.38705 14.9225 5.71279 14.2921 5.48429C13.6617 5.25417 13.3359 4.5557 13.566 3.9253L14.7037 0.79922C14.9322 0.168818 15.6306 -0.155296 16.261 0.0732047C16.8915 0.303326 17.2172 1.00017 16.9871 1.63057L15.8494 4.75665Z" fill="#FC9214"/>
<path fill-rule="evenodd" clip-rule="evenodd" d="M5.1948 7.82868C5.8252 8.05718 6.15094 8.75565 5.92082 9.38605C5.69232 10.0164 4.99385 10.3422 4.36345 10.1121L1.23737 8.97442C0.606966 8.74592 0.281231 8.04746 0.511352 7.41706C0.739853 6.78665 1.43832 6.46092 2.06872 6.69104L5.1948 7.82868Z" fill="#FC9214"/>
<path fill-rule="evenodd" clip-rule="evenodd" d="M5.16179 12.5749C5.76951 12.2913 6.4939 12.5554 6.7775 13.1632C7.0611 13.7709 6.79695 14.4953 6.18923 14.7789L3.17497 16.1839C2.56726 16.4675 1.84286 16.205 1.55927 15.5973C1.27567 14.9879 1.53982 14.2651 2.14753 13.9815L5.16179 12.5749Z" fill="#FC9214"/>
<path fill-rule="evenodd" clip-rule="evenodd" d="M20.2399 5.5439C20.8476 5.2603 21.572 5.52284 21.8556 6.13217C22.1392 6.73988 21.8751 7.46266 21.2674 7.74626L18.2531 9.15291C17.6454 9.43651 16.921 9.17236 16.6374 8.56465C16.3538 7.95693 16.6179 7.23254 17.2257 6.94894L20.2399 5.5439Z" fill="#FC9214"/>
</svg>
