<svg width="28" height="29" viewBox="0 0 28 29" fill="none" xmlns="http://www.w3.org/2000/svg">
<path d="M17.3724 4.26198H10.6291C10.1624 4.26198 9.78906 3.88865 9.78906 3.42198C9.78906 2.95531 10.1624 2.57031 10.6291 2.57031H17.3724C17.8391 2.57031 18.2124 2.94365 18.2124 3.41031C18.2124 3.87698 17.8391 4.26198 17.3724 4.26198Z" fill="#FC9214"/>
<path d="M23.2983 17.7344H19.8683C18.3867 17.7344 17.5 18.621 17.5 20.1027V23.5327C17.5 25.0144 18.3867 25.901 19.8683 25.901H23.2983C24.78 25.901 25.6667 25.0144 25.6667 23.5327V20.1027C25.6667 18.621 24.78 17.7344 23.2983 17.7344ZM22.9717 22.9377L21.595 23.731C21.315 23.8944 21.035 23.976 20.7783 23.976C20.58 23.976 20.405 23.9294 20.2417 23.836C19.8683 23.6144 19.6583 23.1827 19.6583 22.611V21.0244C19.6583 20.4527 19.8683 20.021 20.2417 19.7994C20.615 19.5777 21.0933 19.6244 21.595 19.9044L22.9717 20.6977C23.4617 20.9894 23.7417 21.386 23.7417 21.8177C23.7417 22.2494 23.4733 22.646 22.9717 22.9377Z" fill="#FC9214"/>
<path d="M16.3311 23.5296V20.0996C16.3311 17.9879 17.7545 16.5646 19.8661 16.5646H23.2961C23.5645 16.5646 23.8211 16.5879 24.0661 16.6346C24.0895 16.3546 24.1128 16.0746 24.1128 15.7829C24.1128 10.1946 19.5745 5.65625 13.9978 5.65625C8.42115 5.65625 3.88281 10.1946 3.88281 15.7829C3.88281 21.3596 8.42115 25.8979 13.9978 25.8979C14.9895 25.8979 15.9345 25.7346 16.8445 25.4779C16.5178 24.9296 16.3311 24.2763 16.3311 23.5296ZM14.8728 15.3979C14.8728 15.8763 14.4761 16.2729 13.9978 16.2729C13.5195 16.2729 13.1228 15.8763 13.1228 15.3979V9.56458C13.1228 9.08625 13.5195 8.68958 13.9978 8.68958C14.4761 8.68958 14.8728 9.08625 14.8728 9.56458V15.3979Z" fill="#FC9214"/>
</svg>
