<svg width="21" height="22" viewBox="0 0 21 22" fill="none" xmlns="http://www.w3.org/2000/svg">
<path fill-rule="evenodd" clip-rule="evenodd" d="M15.8616 0.831945V2.56239C18.8566 2.8397 20.3097 4.62561 20.5316 7.27674C20.5648 7.58733 20.2986 7.86465 19.9769 7.86465H1.20827C0.897675 7.86465 0.631453 7.59843 0.653638 7.27674C0.87549 4.62561 2.32862 2.8397 5.32362 2.56239V0.831945C5.32362 0.377148 5.70077 0 6.15557 0C6.61036 0 6.98751 0.377148 6.98751 0.831945V2.49583H14.1977V0.831945C14.1977 0.377148 14.5748 0 15.0296 0C15.4844 0 15.8616 0.377148 15.8616 0.831945ZM1.71863 8.51498H19.4668C20.0769 8.51498 20.576 9.01415 20.576 9.62424V16.4573C20.576 19.7851 18.9122 22.0036 15.0297 22.0036H6.15567C2.27326 22.0036 0.609375 19.7851 0.609375 16.4573V9.62424C0.609375 9.01415 1.10854 8.51498 1.71863 8.51498ZM13.1884 14.7934L13.743 14.2277C14.4197 13.551 14.7413 12.7634 13.743 11.7651C13.2882 11.3103 12.8778 11.1328 12.5006 11.1328C12.0569 11.1328 11.6465 11.3991 11.2805 11.7651L10.7258 12.3308L7.35367 15.6919C7.20947 15.8472 7.06527 16.1356 7.03199 16.3464L6.82123 17.8549C6.74358 18.3874 7.12073 18.7756 7.66427 18.698L9.16177 18.4761C9.37253 18.4539 9.67203 18.2987 9.81623 18.1544L13.1773 14.7934H13.1884Z" fill="white"/>
</svg>
