<svg width="20" height="21" viewBox="0 0 20 21" fill="none" xmlns="http://www.w3.org/2000/svg">
<path d="M16.2547 5.27083L11.3047 2.4125C10.4964 1.94583 9.49635 1.94583 8.67969 2.4125L3.73802 5.27083C2.92969 5.7375 2.42969 6.60417 2.42969 7.54583V13.2458C2.42969 14.1792 2.92969 15.0458 3.73802 15.5208L8.68802 18.3792C9.49635 18.8458 10.4964 18.8458 11.313 18.3792L16.263 15.5208C17.0714 15.0542 17.5714 14.1875 17.5714 13.2458V7.54583C17.563 6.60417 17.063 5.74583 16.2547 5.27083ZM9.99635 6.5125C11.0714 6.5125 11.938 7.37917 11.938 8.45417C11.938 9.52917 11.0714 10.3958 9.99635 10.3958C8.92135 10.3958 8.05469 9.52917 8.05469 8.45417C8.05469 7.3875 8.92135 6.5125 9.99635 6.5125ZM12.2297 14.2792H7.76302C7.08802 14.2792 6.69635 13.5292 7.07135 12.9708C7.63802 12.1292 8.73802 11.5625 9.99635 11.5625C11.2547 11.5625 12.3547 12.1292 12.9214 12.9708C13.2964 13.5208 12.8964 14.2792 12.2297 14.2792Z" fill="#FC9214"/>
</svg>
