<svg width="10" height="10" viewBox="0 0 10 10" fill="none" xmlns="http://www.w3.org/2000/svg">
<mask id="path-1-inside-1_1091_20798" fill="white">
<path d="M4.99806 9.92925C5.28531 9.92925 5.52556 9.70075 5.52556 9.4195V5.52325H9.31056C9.59181 5.52325 9.83806 5.28325 9.83806 4.996C9.83806 4.709 9.59181 4.4745 9.31056 4.4745H5.52556V0.572C5.52556 0.291 5.28531 0.0625 4.99806 0.0625C4.71106 0.0625 4.47656 0.291 4.47656 0.57225V4.47475H0.691562C0.410312 4.47475 0.164062 4.709 0.164062 4.996C0.164062 5.283 0.410312 5.5235 0.691562 5.5235H4.47656V9.41975C4.47656 9.701 4.71106 9.92975 4.99806 9.92975"/>
</mask>
<path d="M4.99806 9.92925C5.28531 9.92925 5.52556 9.70075 5.52556 9.4195V5.52325H9.31056C9.59181 5.52325 9.83806 5.28325 9.83806 4.996C9.83806 4.709 9.59181 4.4745 9.31056 4.4745H5.52556V0.572C5.52556 0.291 5.28531 0.0625 4.99806 0.0625C4.71106 0.0625 4.47656 0.291 4.47656 0.57225V4.47475H0.691562C0.410312 4.47475 0.164062 4.709 0.164062 4.996C0.164062 5.283 0.410312 5.5235 0.691562 5.5235H4.47656V9.41975C4.47656 9.701 4.71106 9.92975 4.99806 9.92975" fill="white"/>
<path d="M5.52556 5.52325V3.12325H3.12556V5.52325H5.52556ZM5.52556 4.4745H3.12556V6.8745H5.52556V4.4745ZM4.47656 4.47475V6.87475H6.87656V4.47475H4.47656ZM4.47656 5.5235H6.87656V3.1235H4.47656V5.5235ZM4.99806 12.3293C6.5213 12.3293 7.92556 11.114 7.92556 9.4195H3.12556C3.12556 8.28751 4.04932 7.52925 4.99806 7.52925V12.3293ZM7.92556 9.4195V5.52325H3.12556V9.4195H7.92556ZM5.52556 7.92325H9.31056V3.12325H5.52556V7.92325ZM9.31056 7.92325C10.8982 7.92325 12.2381 6.62778 12.2381 4.996H7.43806C7.43806 3.93872 8.28546 3.12325 9.31056 3.12325V7.92325ZM12.2381 4.996C12.2381 3.33131 10.8645 2.0745 9.31056 2.0745V6.8745C8.31914 6.8745 7.43806 6.08669 7.43806 4.996H12.2381ZM9.31056 2.0745H5.52556V6.8745H9.31056V2.0745ZM7.92556 4.4745V0.572H3.12556V4.4745H7.92556ZM7.92556 0.572C7.92556 -1.12299 6.52052 -2.3375 4.99806 -2.3375V2.4625C4.05011 2.4625 3.12556 1.70499 3.12556 0.572H7.92556ZM4.99806 -2.3375C3.43965 -2.3375 2.07656 -1.08792 2.07656 0.57225H6.87656C6.87656 1.66992 5.98247 2.4625 4.99806 2.4625V-2.3375ZM2.07656 0.57225V4.47475H6.87656V0.57225H2.07656ZM4.47656 2.07475H0.691562V6.87475H4.47656V2.07475ZM0.691562 2.07475C-0.860845 2.07475 -2.23594 3.32983 -2.23594 4.996H2.56406C2.56406 6.08816 1.68147 6.87475 0.691562 6.87475V2.07475ZM-2.23594 4.996C-2.23594 6.62533 -0.898263 7.9235 0.691562 7.9235V3.1235C1.71889 3.1235 2.56406 3.94067 2.56406 4.996H-2.23594ZM0.691562 7.9235H4.47656V3.1235H0.691562V7.9235ZM2.07656 5.5235V9.41975H6.87656V5.5235H2.07656ZM2.07656 9.41975C2.07656 11.0784 3.4381 12.3298 4.99806 12.3298V7.52975C5.98402 7.52975 6.87656 8.3236 6.87656 9.41975H2.07656Z" fill="white" mask="url(#path-1-inside-1_1091_20798)"/>
</svg>
