<svg width="22" height="22" viewBox="0 0 22 22" fill="none" xmlns="http://www.w3.org/2000/svg">
<path d="M13.8971 8.48571C15.94 8.48571 17.1971 5.5 17.1971 3.61429C17.1971 2.04286 16.4114 0.157143 14.84 0.157143C12.7971 0.157143 11.54 3.14286 11.54 5.02857C11.54 6.6 12.3257 8.48571 13.8971 8.48571ZM7.92567 8.48571C9.4971 8.48571 10.2828 6.6 10.2828 5.02857C10.2828 2.98571 9.02567 0 6.98281 0C5.41138 0 4.62567 1.88571 4.62567 3.45714C4.46853 5.5 5.72567 8.48571 7.92567 8.48571ZM19.5542 6.91429C17.5114 6.91429 16.0971 9.74286 16.0971 11.7857C16.0971 13.2 16.7257 14.6143 18.14 14.6143C20.1828 14.6143 21.5971 11.7857 21.5971 9.74286C21.5971 8.32857 20.8114 6.91429 19.5542 6.91429ZM5.88281 11.7857C5.88281 9.74286 4.31138 6.91429 2.42567 6.91429C1.01138 6.91429 0.382812 8.32857 0.382812 9.74286C0.382812 11.7857 1.95424 14.6143 3.83996 14.6143C5.25424 14.6143 5.88281 13.2 5.88281 11.7857ZM10.9114 11.4714C7.76853 11.4714 3.52567 16.5 3.52567 19.9571C3.52567 21.5286 4.62567 22 5.88281 22C7.76853 22 9.18281 20.7429 10.9114 20.7429C12.4828 20.7429 13.8971 22 15.6257 22C16.8828 22 18.2971 21.6857 18.2971 19.9571C18.2971 16.5 14.0542 11.4714 10.9114 11.4714Z" fill="white"/>
</svg>
