<svg width="22" height="23" viewBox="0 0 22 23" fill="none" xmlns="http://www.w3.org/2000/svg">
<path d="M13.4736 9.0212C15.4855 9.0212 16.7236 6.08073 16.7236 4.22359C16.7236 2.67597 15.9498 0.818824 14.4022 0.818824C12.3903 0.818824 11.1522 3.7593 11.1522 5.61644C11.1522 7.16406 11.926 9.0212 13.4736 9.0212ZM7.59263 9.0212C9.14025 9.0212 9.91406 7.16406 9.91406 5.61644C9.91406 3.60454 8.67597 0.664062 6.66406 0.664062C5.11644 0.664062 4.34263 2.5212 4.34263 4.06882C4.18787 6.08073 5.42597 9.0212 7.59263 9.0212ZM19.045 7.47359C17.0331 7.47359 15.6403 10.2593 15.6403 12.2712C15.6403 13.6641 16.2593 15.0569 17.6522 15.0569C19.6641 15.0569 21.0569 12.2712 21.0569 10.2593C21.0569 8.86644 20.2831 7.47359 19.045 7.47359ZM5.58073 12.2712C5.58073 10.2593 4.03311 7.47359 2.17597 7.47359C0.78311 7.47359 0.164062 8.86644 0.164062 10.2593C0.164062 12.2712 1.71168 15.0569 3.56882 15.0569C4.96168 15.0569 5.58073 13.6641 5.58073 12.2712ZM10.5331 11.9617C7.43787 11.9617 3.2593 16.9141 3.2593 20.3188C3.2593 21.8664 4.34263 22.3307 5.58073 22.3307C7.43787 22.3307 8.83073 21.0926 10.5331 21.0926C12.0807 21.0926 13.4736 22.3307 15.176 22.3307C16.4141 22.3307 17.8069 22.0212 17.8069 20.3188C17.8069 16.9141 13.6283 11.9617 10.5331 11.9617Z" fill="white"/>
</svg>
