<svg width="31" height="31" viewBox="0 0 31 31" fill="none" xmlns="http://www.w3.org/2000/svg">
<path d="M21.9766 6.96094C19.8391 6.96094 17.2891 7.77344 17.2891 11.6484V19.1484C17.2891 23.0234 19.8391 23.8359 21.9766 23.8359C24.1141 23.8359 26.6641 23.0234 26.6641 19.1484V11.6484C26.6641 7.77344 24.1141 6.96094 21.9766 6.96094Z" fill="#FC9214"/>
<path d="M9.02344 6.96094C6.88594 6.96094 4.33594 7.77344 4.33594 11.6484V19.1484C4.33594 23.0234 6.88594 23.8359 9.02344 23.8359C11.1609 23.8359 13.7109 23.0234 13.7109 19.1484V11.6484C13.7109 7.77344 11.1609 6.96094 9.02344 6.96094Z" fill="#FC9214"/>
<path d="M17.2859 14.4531H13.7109V16.3281H17.2859V14.4531Z" fill="#FC9214"/>
<path d="M28.6172 19.4609C28.1047 19.4609 27.6797 19.0359 27.6797 18.5234V12.2734C27.6797 11.7609 28.1047 11.3359 28.6172 11.3359C29.1297 11.3359 29.5547 11.7609 29.5547 12.2734V18.5234C29.5547 19.0359 29.1297 19.4609 28.6172 19.4609Z" fill="#FC9214"/>
<path d="M2.36719 19.4609C1.85469 19.4609 1.42969 19.0359 1.42969 18.5234V12.2734C1.42969 11.7609 1.85469 11.3359 2.36719 11.3359C2.87969 11.3359 3.30469 11.7609 3.30469 12.2734V18.5234C3.30469 19.0359 2.87969 19.4609 2.36719 19.4609Z" fill="#FC9214"/>
</svg>
