<?xml version="1.0" standalone="no"?>
<!DOCTYPE svg PUBLIC "-//W3C//DTD SVG 20010904//EN"
 "http://www.w3.org/TR/2001/REC-SVG-20010904/DTD/svg10.dtd">
<svg version="1.0" xmlns="http://www.w3.org/2000/svg"
 width="264.000000pt" height="211.000000pt" viewBox="0 0 264.000000 211.000000"
 preserveAspectRatio="xMidYMid meet">

<g transform="translate(0.000000,211.000000) scale(0.100000,-0.100000)"
fill="#000000" stroke="none">
<path d="M2120 2040 c0 -7 -8 -10 -20 -7 -29 7 -70 -15 -70 -38 0 -15 -3 -16
-9 -7 -6 11 -17 9 -52 -6 -24 -11 -55 -25 -69 -30 -22 -9 -19 -11 27 -11 28
-1 55 -5 58 -11 3 -5 1 -10 -5 -10 -6 0 -9 -4 -6 -9 3 -5 0 -13 -7 -19 -15
-12 -99 -4 -91 9 9 15 -13 10 -26 -6 -7 -8 -20 -15 -29 -15 -10 -1 -6 -6 12
-16 35 -19 35 -34 -2 -34 -44 0 -61 -10 -60 -34 1 -16 2 -17 6 -4 5 22 50 35
65 20 8 -8 3 -13 -16 -18 -36 -9 -44 -28 -43 -101 1 -52 -2 -66 -22 -87 l-24
-25 28 -13 c25 -11 29 -10 46 11 11 13 19 30 19 38 0 23 38 90 55 97 28 10 66
7 101 -10 33 -16 37 -16 68 1 40 22 106 16 145 -13 14 -10 40 -45 57 -78 24
-48 39 -63 80 -85 27 -14 61 -29 74 -33 39 -12 103 -6 123 11 18 17 23 68 7
78 -6 3 -10 49 -10 103 0 115 -23 176 -85 231 -58 50 -177 104 -244 109 -31 2
-62 9 -68 14 -9 7 -13 7 -13 -2z m-61 -149 c2 0 -17 -23 -41 -49 -25 -27 -51
-58 -57 -71 -20 -37 -24 -16 -7 36 23 70 39 89 73 87 15 -1 30 -2 32 -3z m392
-48 c34 -54 18 -46 -20 11 -19 28 -27 45 -18 37 9 -7 26 -29 38 -48z m-99 0
c26 -28 48 -65 48 -80 0 -4 -10 8 -21 27 -12 19 -33 45 -48 57 -14 12 -21 22
-15 23 5 0 22 -12 36 -27z m132 2 c19 -29 33 -120 20 -128 -5 -3 -10 12 -10
32 -1 21 -11 56 -23 79 -23 46 -14 58 13 17z m-2 -238 c17 -10 28 -20 25 -23
-10 -10 -65 28 -76 53 -16 35 -13 42 5 13 9 -14 30 -34 46 -43z m43 -87 c7
-12 -2 -12 -30 0 -19 8 -19 9 2 9 12 1 25 -3 28 -9z"/>
<path d="M1898 1913 c7 -3 16 -2 19 1 4 3 -2 6 -13 5 -11 0 -14 -3 -6 -6z"/>
<path d="M1577 1680 c-44 -13 -95 -57 -117 -100 l-20 -39 30 -35 c36 -41 107
-71 142 -61 61 19 106 111 87 179 -14 49 -65 72 -122 56z m-57 -115 c10 -12
10 -21 2 -40 -14 -30 -22 -31 -45 -5 -20 24 -21 32 -5 48 16 16 33 15 48 -3z"/>
<path d="M1752 1652 c-11 -25 -11 -25 4 -10 9 9 15 21 13 27 -2 6 -10 -2 -17
-17z"/>
<path d="M1146 1572 c5 -5 29 -17 54 -26 l45 -16 -28 25 c-15 14 -40 25 -55
25 -15 0 -22 -4 -16 -8z"/>
<path d="M1924 1536 l-29 -25 41 -1 c22 0 45 -5 52 -12 18 -18 27 -1 16 30
-13 36 -45 39 -80 8z"/>
<path d="M2210 1522 c-18 -6 -39 -32 -40 -49 0 -8 10 -11 29 -7 16 3 38 1 51
-6 30 -16 34 -8 16 28 -17 32 -33 42 -56 34z"/>
<path d="M1160 1486 c0 -15 57 -46 84 -46 23 0 20 26 -6 44 -28 20 -78 21 -78
2z"/>
<path d="M2160 1419 c-13 -23 -10 -59 5 -61 15 -1 33 41 28 63 -7 25 -20 24
-33 -2z"/>
<path d="M1940 1423 c0 -22 29 -36 53 -25 22 11 22 11 -3 11 -15 1 -31 6 -38
13 -8 8 -12 8 -12 1z"/>
<path d="M1737 1313 c-2 -5 -7 -20 -11 -35 -5 -21 -2 -28 15 -33 12 -4 39 -23
60 -42 34 -31 59 -37 59 -13 0 11 -73 98 -98 116 -11 8 -23 11 -25 7z"/>
<path d="M1980 1202 c0 -30 63 -52 104 -36 29 11 17 26 -14 19 -21 -5 -39 -2
-55 9 -27 18 -35 20 -35 8z"/>
<path d="M1785 1135 c-47 -17 -67 -41 -59 -69 3 -12 31 -45 62 -73 59 -54 59
-63 1 -39 -64 26 -84 27 -97 6 -7 -11 -9 -19 -5 -18 17 4 72 -14 84 -28 9 -11
9 -18 -4 -32 -8 -9 -17 -28 -19 -42 -4 -31 -43 -38 -87 -16 -16 9 -32 16 -35
16 -5 0 4 -159 10 -179 4 -11 9 -10 27 6 44 41 127 36 127 -7 0 -10 5 -22 11
-26 14 -8 3 -53 -19 -77 -9 -10 -39 -64 -67 -120 -36 -74 -56 -103 -70 -105
-28 -4 -114 55 -121 82 -4 17 -21 26 -91 44 -47 13 -87 22 -88 20 -22 -25
-111 -170 -126 -203 -18 -41 -19 -47 -5 -61 9 -8 16 -20 16 -25 0 -16 -39 -49
-57 -49 -22 0 -72 -60 -83 -101 l-9 -29 168 0 168 0 43 85 c24 46 45 83 47 82
1 -2 -6 -35 -17 -73 -11 -38 -20 -75 -20 -82 0 -12 37 -13 203 -10 183 4 210
7 290 31 108 33 222 90 304 152 71 53 94 80 41 47 -45 -28 -61 -28 -91 2 -14
14 -65 45 -113 69 -49 25 -120 63 -159 86 -38 23 -82 41 -97 41 -29 0 -37 17
-17 37 5 5 12 32 13 59 4 54 30 84 75 84 23 1 20 4 -21 26 -27 13 -48 31 -48
39 0 34 81 25 165 -18 56 -28 188 -130 260 -199 l60 -58 3 33 c5 46 -24 147
-75 265 -51 116 -50 124 21 142 87 23 146 43 146 51 0 8 -16 7 -117 -12 -35
-7 -58 -7 -70 0 -15 8 -12 12 27 29 25 10 66 27 93 36 80 30 83 71 9 121 -49
34 -60 32 -20 -4 18 -16 30 -32 27 -36 -4 -3 -29 3 -58 14 l-51 21 -6 -25 c-6
-26 -2 -68 10 -95 5 -12 -15 -22 -87 -47 -52 -18 -104 -33 -118 -33 -13 0 -51
16 -83 36 -33 19 -87 49 -120 66 -34 17 -62 31 -63 32 -1 1 5 21 13 46 8 24
14 56 12 71 l-3 27 -40 -13z"/>
<path d="M1519 914 c-30 -36 -142 -61 -151 -33 -5 16 -60 -8 -84 -39 -23 -28
-75 -36 -123 -18 -32 11 -19 -9 19 -29 41 -21 202 -55 262 -55 83 0 102 15
110 84 5 41 4 65 -5 83 -12 23 -14 23 -28 7z m1 -53 c0 -30 -53 -35 -64 -5 -4
10 3 14 29 14 19 0 35 -4 35 -9z"/>
<path d="M2442 447 c-20 -20 -32 -43 -32 -59 0 -15 -5 -30 -10 -33 -6 -4 -8
-11 -5 -16 4 -5 16 1 29 14 24 22 86 111 86 121 0 18 -40 1 -68 -27z"/>
</g>
</svg>
