<?xml version="1.0" standalone="no"?>
<!DOCTYPE svg PUBLIC "-//W3C//DTD SVG 20010904//EN"
 "http://www.w3.org/TR/2001/REC-SVG-20010904/DTD/svg10.dtd">
<svg version="1.0" xmlns="http://www.w3.org/2000/svg"
 width="255.000000pt" height="255.000000pt" viewBox="0 0 255.000000 255.000000"
 preserveAspectRatio="xMidYMid meet">

<g transform="translate(0.000000,255.000000) scale(0.100000,-0.100000)"
fill="#000000" stroke="none">
<path d="M1625 1324 l-50 -14 44 5 c24 3 51 10 60 15 21 12 7 11 -54 -6z"/>
<path d="M1989 1113 c-13 -16 -12 -17 4 -4 9 7 17 15 17 17 0 8 -8 3 -21 -13z"/>
<path d="M1295 1050 c-3 -5 -1 -10 4 -10 6 0 11 5 11 10 0 6 -2 10 -4 10 -3 0
-8 -4 -11 -10z"/>
<path d="M1718 983 c7 -3 16 -2 19 1 4 3 -2 6 -13 5 -11 0 -14 -3 -6 -6z"/>
<path d="M1648 973 c7 -3 16 -2 19 1 4 3 -2 6 -13 5 -11 0 -14 -3 -6 -6z"/>
<path d="M960 788 c-82 -90 -77 -85 -125 -139 -166 -188 -187 -209 -214 -209
-15 0 -37 7 -49 16 -33 23 -26 0 9 -30 30 -26 63 -33 85 -18 26 17 334 386
334 400 0 9 7 24 17 34 9 10 14 18 12 18 -3 0 -34 -32 -69 -72z"/>
</g>
</svg>
