<?xml version="1.0" standalone="no"?>
<!DOCTYPE svg PUBLIC "-//W3C//DTD SVG 20010904//EN"
 "http://www.w3.org/TR/2001/REC-SVG-20010904/DTD/svg10.dtd">
<svg version="1.0" xmlns="http://www.w3.org/2000/svg"
 width="231.000000pt" height="230.000000pt" viewBox="0 0 231.000000 230.000000"
 preserveAspectRatio="xMidYMid meet">

<g transform="translate(0.000000,230.000000) scale(0.100000,-0.100000)"
fill="#000000" stroke="none">
<path d="M978 2181 c-31 -10 -79 -35 -107 -55 -61 -45 -144 -142 -177 -207
-32 -64 -32 -97 1 -44 30 49 32 30 8 -65 -11 -44 -16 -107 -16 -195 0 -112 3
-142 27 -218 27 -89 62 -169 98 -220 11 -16 18 -30 16 -32 -2 -2 -27 28 -56
67 -28 38 -52 67 -52 64 0 -18 58 -128 86 -162 24 -30 30 -43 20 -47 -8 -3
-19 -46 -30 -119 -10 -62 -20 -122 -22 -133 -7 -28 -24 -798 -18 -805 3 -2 41
33 84 80 l78 85 79 -84 79 -85 -1 395 c0 295 3 411 14 462 7 37 16 69 20 71 3
2 20 1 37 -1 32 -5 32 -5 64 -136 26 -107 200 -609 230 -667 9 -16 23 13 55
110 9 30 20 58 24 62 3 3 35 -7 71 -23 35 -16 69 -28 76 -27 7 2 -19 83 -72
223 -101 264 -118 318 -148 457 l-23 107 43 42 c133 131 192 407 135 629 -76
291 -284 491 -511 489 -30 0 -81 -8 -112 -18z m-18 -65 c0 -2 -7 -7 -16 -10
-8 -3 -12 -2 -9 4 6 10 25 14 25 6z m70 -264 c0 -22 7 -61 15 -88 18 -59 18
-64 5 -64 -29 0 -61 129 -44 174 11 29 24 17 24 -22z m528 -50 c17 -42 36
-105 42 -139 16 -78 9 -275 -11 -321 -13 -30 -14 -17 -14 145 0 160 -2 185
-24 253 -49 155 -44 197 7 62z m-326 -29 c3 -32 9 -66 13 -75 12 -29 -20 -22
-33 7 -13 28 -16 107 -5 118 15 16 21 4 25 -50z m-355 -120 c0 -32 7 -75 16
-95 14 -33 14 -38 1 -38 -34 0 -58 125 -34 171 6 10 12 19 14 19 1 0 3 -26 3
-57z m493 3 c0 -8 -4 -18 -10 -21 -5 -3 -10 3 -10 14 0 12 5 21 10 21 6 0 10
-6 10 -14z m-10 -93 c0 -16 3 -38 6 -50 9 -31 -10 -29 -24 2 -17 37 -15 75 3
75 10 0 15 -10 15 -27z m-270 -47 c0 -13 -7 -26 -15 -30 -16 -6 -20 10 -9 38
9 24 24 19 24 -8z m-122 -173 c-9 -34 -7 -76 8 -130 9 -33 -13 -28 -31 7 -27
52 -13 160 21 160 9 0 10 -9 2 -37z"/>
</g>
</svg>
